M48
INCH,TZ
T1C0.032
T2C0.040
T3C0.059
T4C0.125
%
G90
G05
T1
X25000Y-41250
X25000Y-46250
X26000Y-41250
X26000Y-46250
X31000Y-36500
X31000Y-37500
X31000Y-38500
X32750Y-42750
X32750Y-43750
X32750Y-44750
X33750Y-39750
X33750Y-40750
X33750Y-41750
X36250Y-42750
X36250Y-43750
X36250Y-44750
X38250Y-42750
X40000Y-36500
X40000Y-37500
X40000Y-38500
X40250Y-42750
X41000Y-39250
X41000Y-40250
X41000Y-41250
X41000Y-44250
X41000Y-45250
X41000Y-46250
X42500Y-37500
X42500Y-38500
X42500Y-39500
X42500Y-41250
X42500Y-43250
X42750Y-44750
X42750Y-45750
X42750Y-46750
X44000Y-41500
X45000Y-37750
X45000Y-39750
X46000Y-41500
X48250Y-38000
X48250Y-39000
X49250Y-46750
X51250Y-40750
X51250Y-46750
X52250Y-40750
X53750Y-43250
X53750Y-45250
X55000Y-44250
X55000Y-46250
X58250Y-39000
X58250Y-46750
X59250Y-39000
X60250Y-46750
X62000Y-35700
X62000Y-36700
X62750Y-43250
X62750Y-45250
X65300Y-46900
X65300Y-47900
T2
X28000Y-35750
X28000Y-39750
X28800Y-43500
X28800Y-47500
X29500Y-38000
X29500Y-42000
X31000Y-44250
X31000Y-48250
X32250Y-35750
X32250Y-39750
X34500Y-44250
X34500Y-48250
X35250Y-35750
X35250Y-39750
X35250Y-41250
X36750Y-35750
X36750Y-39750
X37750Y-44250
X37750Y-48250
X38250Y-35750
X38250Y-39750
X39250Y-41250
X39250Y-44250
X39250Y-48250
X43750Y-35750
X43750Y-39750
X44250Y-43000
X44250Y-47000
X45750Y-44982
X47750Y-41518
X49250Y-42250
X49250Y-43250
X49250Y-44250
X49250Y-45250
X51500Y-39250
X52250Y-35750
X52250Y-42250
X52250Y-43250
X52250Y-44250
X52250Y-45250
X53250Y-35750
X54250Y-35750
X55500Y-39250
X56400Y-42800
X56400Y-46800
X56750Y-40500
X58250Y-42250
X58250Y-43250
X58250Y-44250
X58250Y-45250
X60750Y-40500
X61250Y-42250
X61250Y-43250
X61250Y-44250
X61250Y-45250
X64000Y-40250
X64000Y-44250
X66500Y-35700
X66500Y-36700
X66700Y-40250
X66700Y-41250
X66700Y-42250
X66700Y-43250
X67700Y-40750
X67700Y-41750
X67700Y-42750
X67700Y-43750
X67900Y-46900
X67900Y-47900
X71530Y-39510
X71530Y-43490
X72129Y-40510
X72129Y-44490
T3
X69000Y-38939
X69000Y-45061
T4
X21250Y-36250
X21250Y-48750
X70200Y-39750
X70200Y-44250
T0
M30
