G04 #@! TF.FileFunction,Copper,L1,Top,Signal*
%FSLAX46Y46*%
G04 Gerber Fmt 4.6, Leading zero omitted, Abs format (unit mm)*
G04 Created by KiCad (PCBNEW 4.0.1-3.201512221402+6198~38~ubuntu15.04.1-stable) date Tue 29 Mar 2016 09:19:16 AM EDT*
%MOMM*%
G01*
G04 APERTURE LIST*
%ADD10C,0.100000*%
%ADD11C,2.032000*%
%ADD12C,1.905000*%
%ADD13C,3.810000*%
%ADD14C,2.540000*%
%ADD15C,1.778000*%
%ADD16C,6.350000*%
%ADD17C,0.787400*%
G04 APERTURE END LIST*
D10*
D11*
X168910000Y-90678000D03*
X168910000Y-93218000D03*
X172466000Y-119126000D03*
X172466000Y-121666000D03*
D12*
X66040000Y-117475000D03*
X63500000Y-117475000D03*
X122555000Y-99060000D03*
X122555000Y-96520000D03*
X114300000Y-95885000D03*
X114300000Y-100965000D03*
X157480000Y-90678000D03*
X157480000Y-93218000D03*
X102235000Y-108585000D03*
X97155000Y-108585000D03*
X165862000Y-119126000D03*
X165862000Y-121666000D03*
X116840000Y-105410000D03*
X111760000Y-105410000D03*
X125095000Y-118745000D03*
X130175000Y-118745000D03*
X132715000Y-103505000D03*
X130175000Y-103505000D03*
X136525000Y-114935000D03*
X136525000Y-109855000D03*
X139700000Y-117475000D03*
X139700000Y-112395000D03*
X147955000Y-118745000D03*
X153035000Y-118745000D03*
X150495000Y-99060000D03*
X147955000Y-99060000D03*
X159385000Y-114935000D03*
X159385000Y-109855000D03*
X107950000Y-104775000D03*
X107950000Y-109855000D03*
X66040000Y-104775000D03*
X63500000Y-104775000D03*
D13*
X178308000Y-112395000D03*
X178308000Y-100965000D03*
D12*
X181686200Y-110464600D03*
X181686200Y-100355400D03*
X183207660Y-113004600D03*
X183207660Y-102895400D03*
D14*
X175260000Y-114454940D03*
X175260000Y-98905060D03*
D12*
X171958000Y-111125000D03*
X169418000Y-102235000D03*
X169418000Y-109855000D03*
X171958000Y-108585000D03*
X169418000Y-107315000D03*
X171958000Y-106045000D03*
X169418000Y-104775000D03*
X171958000Y-103505000D03*
D14*
X73152000Y-120650000D03*
X73152000Y-110490000D03*
X99695000Y-104775000D03*
X89535000Y-104775000D03*
D15*
X85725000Y-106045000D03*
X85725000Y-103505000D03*
X85725000Y-100965000D03*
X78740000Y-97790000D03*
X78740000Y-95250000D03*
X78740000Y-92710000D03*
X83185000Y-113665000D03*
X83185000Y-111125000D03*
X83185000Y-108585000D03*
X92075000Y-113665000D03*
X92075000Y-111125000D03*
X92075000Y-108585000D03*
X104140000Y-117475000D03*
X104140000Y-114935000D03*
X104140000Y-112395000D03*
X108585000Y-118745000D03*
X108585000Y-116205000D03*
X108585000Y-113665000D03*
X104140000Y-104775000D03*
X104140000Y-102235000D03*
X104140000Y-99695000D03*
X101600000Y-97790000D03*
X101600000Y-95250000D03*
X101600000Y-92710000D03*
X107950000Y-100330000D03*
X107950000Y-97790000D03*
X107950000Y-95250000D03*
D14*
X89535000Y-90805000D03*
X89535000Y-100965000D03*
X71120000Y-90805000D03*
X71120000Y-100965000D03*
X74930000Y-96520000D03*
X74930000Y-106680000D03*
X78740000Y-112395000D03*
X78740000Y-122555000D03*
X87630000Y-112395000D03*
X87630000Y-122555000D03*
X97155000Y-90805000D03*
X97155000Y-100965000D03*
X116205000Y-114254409D03*
X121285000Y-105455591D03*
X93345000Y-90805000D03*
X93345000Y-100965000D03*
X95885000Y-112395000D03*
X95885000Y-122555000D03*
X140970000Y-99695000D03*
X130810000Y-99695000D03*
X143256000Y-108712000D03*
X143256000Y-118872000D03*
X154305000Y-102870000D03*
X144145000Y-102870000D03*
X162560000Y-102235000D03*
X162560000Y-112395000D03*
X81915000Y-90805000D03*
X81915000Y-100965000D03*
X111125000Y-90805000D03*
X111125000Y-100965000D03*
X99695000Y-112395000D03*
X99695000Y-122555000D03*
X112395000Y-119380000D03*
X112395000Y-109220000D03*
D11*
X135255000Y-90805000D03*
X137795000Y-90805000D03*
X132715000Y-90805000D03*
D12*
X125095000Y-107315000D03*
X125095000Y-109855000D03*
X125095000Y-112395000D03*
X125095000Y-114935000D03*
X132715000Y-114935000D03*
X132715000Y-112395000D03*
X132715000Y-109855000D03*
X132715000Y-107315000D03*
X147955000Y-107315000D03*
X147955000Y-109855000D03*
X147955000Y-112395000D03*
X147955000Y-114935000D03*
X155575000Y-114935000D03*
X155575000Y-112395000D03*
X155575000Y-109855000D03*
X155575000Y-107315000D03*
D16*
X53975000Y-123825000D03*
X53975000Y-92075000D03*
D17*
G36*
X182893900Y-98546652D02*
X182112461Y-98222171D01*
X181263663Y-98221430D01*
X180479191Y-98545567D01*
X180259493Y-98764882D01*
X180147212Y-98411936D01*
X179030194Y-97902441D01*
X177803230Y-97859193D01*
X177524623Y-97963256D01*
X177384187Y-97588463D01*
X177289269Y-97446408D01*
X176827308Y-97355713D01*
X175277961Y-98905060D01*
X175292103Y-98919202D01*
X175274142Y-98937163D01*
X175260000Y-98923021D01*
X173710653Y-100472368D01*
X173801348Y-100934329D01*
X174688948Y-101338062D01*
X175206212Y-101355753D01*
X175202193Y-101469770D01*
X175631775Y-102619888D01*
X175754936Y-102804212D01*
X176282877Y-102972163D01*
X178290039Y-100965000D01*
X178275897Y-100950858D01*
X178293858Y-100932897D01*
X178308000Y-100947039D01*
X178322142Y-100932897D01*
X178340103Y-100950858D01*
X178325961Y-100965000D01*
X180333123Y-102972163D01*
X180861064Y-102804212D01*
X181045603Y-102399629D01*
X181088847Y-102417586D01*
X181061066Y-103248245D01*
X181359494Y-104042852D01*
X181440290Y-104163772D01*
X181869261Y-104215838D01*
X182893900Y-103191199D01*
X182893900Y-103227121D01*
X181887222Y-104233799D01*
X181939288Y-104662770D01*
X182712180Y-105013622D01*
X182893900Y-105019700D01*
X182893900Y-108669688D01*
X182181680Y-108346378D01*
X181333355Y-108318006D01*
X180538748Y-108616434D01*
X180417828Y-108697230D01*
X180365762Y-109126201D01*
X181686200Y-110446639D01*
X181700342Y-110432497D01*
X181718303Y-110450458D01*
X181704161Y-110464600D01*
X181718303Y-110478742D01*
X181700342Y-110496703D01*
X181686200Y-110482561D01*
X181672058Y-110496703D01*
X181654097Y-110478742D01*
X181668239Y-110464600D01*
X180347801Y-109144162D01*
X179918830Y-109196228D01*
X179715169Y-109644872D01*
X179030194Y-109332441D01*
X177803230Y-109289193D01*
X176653112Y-109718775D01*
X176468788Y-109841936D01*
X176300837Y-110369877D01*
X178308000Y-112377039D01*
X178322142Y-112362897D01*
X178340103Y-112380858D01*
X178325961Y-112395000D01*
X180333123Y-114402163D01*
X180861064Y-114234212D01*
X181151340Y-113597811D01*
X181359494Y-114152052D01*
X181440290Y-114272972D01*
X181869261Y-114325038D01*
X182893900Y-113300399D01*
X182893900Y-113336321D01*
X181887222Y-114342999D01*
X181939288Y-114771970D01*
X182712180Y-115122822D01*
X182893900Y-115128900D01*
X182893900Y-128918900D01*
X45706100Y-128918900D01*
X45706100Y-126765749D01*
X51052212Y-126765749D01*
X51374671Y-127425651D01*
X52950519Y-128146670D01*
X54682334Y-128209755D01*
X56306465Y-127605300D01*
X56575329Y-127425651D01*
X56897788Y-126765749D01*
X53975000Y-123842961D01*
X51052212Y-126765749D01*
X45706100Y-126765749D01*
X45706100Y-124532334D01*
X49590245Y-124532334D01*
X50194700Y-126156465D01*
X50374349Y-126425329D01*
X51034251Y-126747788D01*
X53957039Y-123825000D01*
X53992961Y-123825000D01*
X56915749Y-126747788D01*
X57575651Y-126425329D01*
X58296670Y-124849481D01*
X58323158Y-124122308D01*
X77190653Y-124122308D01*
X77281348Y-124584269D01*
X78168948Y-124988002D01*
X79143486Y-125021333D01*
X80056597Y-124679187D01*
X80198652Y-124584269D01*
X80289347Y-124122308D01*
X86080653Y-124122308D01*
X86171348Y-124584269D01*
X87058948Y-124988002D01*
X88033486Y-125021333D01*
X88946597Y-124679187D01*
X89088652Y-124584269D01*
X89179347Y-124122308D01*
X94335653Y-124122308D01*
X94426348Y-124584269D01*
X95313948Y-124988002D01*
X96288486Y-125021333D01*
X97201597Y-124679187D01*
X97343652Y-124584269D01*
X97434347Y-124122308D01*
X98145653Y-124122308D01*
X98236348Y-124584269D01*
X99123948Y-124988002D01*
X100098486Y-125021333D01*
X101011597Y-124679187D01*
X101153652Y-124584269D01*
X101244347Y-124122308D01*
X99695000Y-122572961D01*
X98145653Y-124122308D01*
X97434347Y-124122308D01*
X95885000Y-122572961D01*
X94335653Y-124122308D01*
X89179347Y-124122308D01*
X87630000Y-122572961D01*
X86080653Y-124122308D01*
X80289347Y-124122308D01*
X78740000Y-122572961D01*
X77190653Y-124122308D01*
X58323158Y-124122308D01*
X58359755Y-123117666D01*
X57755300Y-121493535D01*
X57575651Y-121224671D01*
X57392992Y-121135415D01*
X70700475Y-121135415D01*
X71072847Y-122036623D01*
X71761751Y-122726730D01*
X72662307Y-123100674D01*
X73637415Y-123101525D01*
X73983595Y-122958486D01*
X76273667Y-122958486D01*
X76615813Y-123871597D01*
X76710731Y-124013652D01*
X77172692Y-124104347D01*
X78722039Y-122555000D01*
X78757961Y-122555000D01*
X80307308Y-124104347D01*
X80769269Y-124013652D01*
X81173002Y-123126052D01*
X81178733Y-122958486D01*
X85163667Y-122958486D01*
X85505813Y-123871597D01*
X85600731Y-124013652D01*
X86062692Y-124104347D01*
X87612039Y-122555000D01*
X87647961Y-122555000D01*
X89197308Y-124104347D01*
X89659269Y-124013652D01*
X90063002Y-123126052D01*
X90068733Y-122958486D01*
X93418667Y-122958486D01*
X93760813Y-123871597D01*
X93855731Y-124013652D01*
X94317692Y-124104347D01*
X95867039Y-122555000D01*
X95902961Y-122555000D01*
X97452308Y-124104347D01*
X97790000Y-124038049D01*
X98127692Y-124104347D01*
X99677039Y-122555000D01*
X99712961Y-122555000D01*
X101262308Y-124104347D01*
X101724269Y-124013652D01*
X102128002Y-123126052D01*
X102161333Y-122151514D01*
X101819187Y-121238403D01*
X101724269Y-121096348D01*
X101262308Y-121005653D01*
X99712961Y-122555000D01*
X99677039Y-122555000D01*
X98127692Y-121005653D01*
X97790000Y-121071951D01*
X97452308Y-121005653D01*
X95902961Y-122555000D01*
X95867039Y-122555000D01*
X94317692Y-121005653D01*
X93855731Y-121096348D01*
X93451998Y-121983948D01*
X93418667Y-122958486D01*
X90068733Y-122958486D01*
X90096333Y-122151514D01*
X89754187Y-121238403D01*
X89659269Y-121096348D01*
X89197308Y-121005653D01*
X87647961Y-122555000D01*
X87612039Y-122555000D01*
X86062692Y-121005653D01*
X85600731Y-121096348D01*
X85196998Y-121983948D01*
X85163667Y-122958486D01*
X81178733Y-122958486D01*
X81206333Y-122151514D01*
X80864187Y-121238403D01*
X80769269Y-121096348D01*
X80307308Y-121005653D01*
X78757961Y-122555000D01*
X78722039Y-122555000D01*
X77172692Y-121005653D01*
X76710731Y-121096348D01*
X76306998Y-121983948D01*
X76273667Y-122958486D01*
X73983595Y-122958486D01*
X74538623Y-122729153D01*
X75228730Y-122040249D01*
X75602674Y-121139693D01*
X75602806Y-120987692D01*
X77190653Y-120987692D01*
X78740000Y-122537039D01*
X80289347Y-120987692D01*
X86080653Y-120987692D01*
X87630000Y-122537039D01*
X89179347Y-120987692D01*
X94335653Y-120987692D01*
X95885000Y-122537039D01*
X97434347Y-120987692D01*
X98145653Y-120987692D01*
X99695000Y-122537039D01*
X101244347Y-120987692D01*
X101153652Y-120525731D01*
X100266052Y-120121998D01*
X99291514Y-120088667D01*
X98378403Y-120430813D01*
X98236348Y-120525731D01*
X98145653Y-120987692D01*
X97434347Y-120987692D01*
X97343652Y-120525731D01*
X96456052Y-120121998D01*
X95481514Y-120088667D01*
X94568403Y-120430813D01*
X94426348Y-120525731D01*
X94335653Y-120987692D01*
X89179347Y-120987692D01*
X89088652Y-120525731D01*
X88201052Y-120121998D01*
X87226514Y-120088667D01*
X86313403Y-120430813D01*
X86171348Y-120525731D01*
X86080653Y-120987692D01*
X80289347Y-120987692D01*
X80198652Y-120525731D01*
X79311052Y-120121998D01*
X78336514Y-120088667D01*
X77423403Y-120430813D01*
X77281348Y-120525731D01*
X77190653Y-120987692D01*
X75602806Y-120987692D01*
X75603525Y-120164585D01*
X75231153Y-119263377D01*
X74542249Y-118573270D01*
X73641693Y-118199326D01*
X72666585Y-118198475D01*
X71765377Y-118570847D01*
X71075270Y-119259751D01*
X70701326Y-120160307D01*
X70700475Y-121135415D01*
X57392992Y-121135415D01*
X56915749Y-120902212D01*
X53992961Y-123825000D01*
X53957039Y-123825000D01*
X51034251Y-120902212D01*
X50374349Y-121224671D01*
X49653330Y-122800519D01*
X49590245Y-124532334D01*
X45706100Y-124532334D01*
X45706100Y-120884251D01*
X51052212Y-120884251D01*
X53975000Y-123807039D01*
X56897788Y-120884251D01*
X56575329Y-120224349D01*
X54999481Y-119503330D01*
X53267666Y-119440245D01*
X51643535Y-120044700D01*
X51374671Y-120224349D01*
X51052212Y-120884251D01*
X45706100Y-120884251D01*
X45706100Y-117897537D01*
X61366030Y-117897537D01*
X61690167Y-118682009D01*
X62289835Y-119282724D01*
X63073739Y-119608229D01*
X63922537Y-119608970D01*
X64707009Y-119284833D01*
X64769242Y-119222709D01*
X64771628Y-119242370D01*
X65544520Y-119593222D01*
X66392845Y-119621594D01*
X67187452Y-119323166D01*
X67308372Y-119242370D01*
X67360438Y-118813399D01*
X66040000Y-117492961D01*
X66025858Y-117507103D01*
X66007897Y-117489142D01*
X66022039Y-117475000D01*
X66057961Y-117475000D01*
X67378399Y-118795438D01*
X67807370Y-118743372D01*
X68158222Y-117970480D01*
X68186594Y-117122155D01*
X67888166Y-116327548D01*
X67807370Y-116206628D01*
X67378399Y-116154562D01*
X66057961Y-117475000D01*
X66022039Y-117475000D01*
X66007897Y-117460858D01*
X66025858Y-117442897D01*
X66040000Y-117457039D01*
X67360438Y-116136601D01*
X67308372Y-115707630D01*
X66535480Y-115356778D01*
X65687155Y-115328406D01*
X64892548Y-115626834D01*
X64771628Y-115707630D01*
X64769332Y-115726546D01*
X64710165Y-115667276D01*
X63926261Y-115341771D01*
X63077463Y-115341030D01*
X62292991Y-115665167D01*
X61692276Y-116264835D01*
X61366771Y-117048739D01*
X61366030Y-117897537D01*
X45706100Y-117897537D01*
X45706100Y-110975415D01*
X70700475Y-110975415D01*
X71072847Y-111876623D01*
X71761751Y-112566730D01*
X72662307Y-112940674D01*
X73637415Y-112941525D01*
X73785312Y-112880415D01*
X76288475Y-112880415D01*
X76660847Y-113781623D01*
X77349751Y-114471730D01*
X78250307Y-114845674D01*
X79225415Y-114846525D01*
X80126623Y-114474153D01*
X80816730Y-113785249D01*
X81190674Y-112884693D01*
X81191525Y-111909585D01*
X80819153Y-111008377D01*
X80130249Y-110318270D01*
X79229693Y-109944326D01*
X78254585Y-109943475D01*
X77353377Y-110315847D01*
X76663270Y-111004751D01*
X76289326Y-111905307D01*
X76288475Y-112880415D01*
X73785312Y-112880415D01*
X74538623Y-112569153D01*
X75228730Y-111880249D01*
X75602674Y-110979693D01*
X75603525Y-110004585D01*
X75247690Y-109143399D01*
X75333486Y-109146333D01*
X76246597Y-108804187D01*
X76388652Y-108709269D01*
X76479347Y-108247308D01*
X74930000Y-106697961D01*
X74915858Y-106712103D01*
X74897897Y-106694142D01*
X74912039Y-106680000D01*
X74947961Y-106680000D01*
X76497308Y-108229347D01*
X76959269Y-108138652D01*
X77363002Y-107251052D01*
X77396333Y-106276514D01*
X77054187Y-105363403D01*
X76959269Y-105221348D01*
X76497308Y-105130653D01*
X74947961Y-106680000D01*
X74912039Y-106680000D01*
X73362692Y-105130653D01*
X72900731Y-105221348D01*
X72496998Y-106108948D01*
X72463667Y-107083486D01*
X72805813Y-107996597D01*
X72833893Y-108038621D01*
X72666585Y-108038475D01*
X71765377Y-108410847D01*
X71075270Y-109099751D01*
X70701326Y-110000307D01*
X70700475Y-110975415D01*
X45706100Y-110975415D01*
X45706100Y-105197537D01*
X61366030Y-105197537D01*
X61690167Y-105982009D01*
X62289835Y-106582724D01*
X63073739Y-106908229D01*
X63922537Y-106908970D01*
X64707009Y-106584833D01*
X64769584Y-106522367D01*
X64829835Y-106582724D01*
X65613739Y-106908229D01*
X66462537Y-106908970D01*
X67247009Y-106584833D01*
X67847724Y-105985165D01*
X68173229Y-105201261D01*
X68173306Y-105112692D01*
X73380653Y-105112692D01*
X74930000Y-106662039D01*
X76479347Y-105112692D01*
X76388652Y-104650731D01*
X75501052Y-104246998D01*
X74526514Y-104213667D01*
X73613403Y-104555813D01*
X73471348Y-104650731D01*
X73380653Y-105112692D01*
X68173306Y-105112692D01*
X68173970Y-104352463D01*
X67849833Y-103567991D01*
X67250165Y-102967276D01*
X66466261Y-102641771D01*
X65617463Y-102641030D01*
X64832991Y-102965167D01*
X64770416Y-103027633D01*
X64710165Y-102967276D01*
X63926261Y-102641771D01*
X63077463Y-102641030D01*
X62292991Y-102965167D01*
X61692276Y-103564835D01*
X61366771Y-104348739D01*
X61366030Y-105197537D01*
X45706100Y-105197537D01*
X45706100Y-101450415D01*
X68668475Y-101450415D01*
X69040847Y-102351623D01*
X69729751Y-103041730D01*
X70630307Y-103415674D01*
X71605415Y-103416525D01*
X72506623Y-103044153D01*
X73196730Y-102355249D01*
X73570674Y-101454693D01*
X73571525Y-100479585D01*
X73199153Y-99578377D01*
X72510249Y-98888270D01*
X71609693Y-98514326D01*
X70634585Y-98513475D01*
X69733377Y-98885847D01*
X69043270Y-99574751D01*
X68669326Y-100475307D01*
X68668475Y-101450415D01*
X45706100Y-101450415D01*
X45706100Y-97005415D01*
X72478475Y-97005415D01*
X72850847Y-97906623D01*
X73539751Y-98596730D01*
X74440307Y-98970674D01*
X75415415Y-98971525D01*
X76316623Y-98599153D01*
X76683257Y-98233158D01*
X76984031Y-98961086D01*
X77565851Y-99543922D01*
X78326425Y-99859740D01*
X79149962Y-99860459D01*
X79837616Y-99576326D01*
X79464326Y-100475307D01*
X79463475Y-101450415D01*
X79835847Y-102351623D01*
X80524751Y-103041730D01*
X81425307Y-103415674D01*
X82400415Y-103416525D01*
X83301623Y-103044153D01*
X83939153Y-102407734D01*
X83655260Y-103091425D01*
X83654541Y-103914962D01*
X83969031Y-104676086D01*
X84067435Y-104774662D01*
X83971078Y-104870851D01*
X83655260Y-105631425D01*
X83654541Y-106454962D01*
X83696206Y-106555800D01*
X83598575Y-106515260D01*
X82775038Y-106514541D01*
X82013914Y-106829031D01*
X81431078Y-107410851D01*
X81115260Y-108171425D01*
X81114541Y-108994962D01*
X81429031Y-109756086D01*
X81527435Y-109854662D01*
X81431078Y-109950851D01*
X81115260Y-110711425D01*
X81114541Y-111534962D01*
X81429031Y-112296086D01*
X81527435Y-112394662D01*
X81431078Y-112490851D01*
X81115260Y-113251425D01*
X81114541Y-114074962D01*
X81429031Y-114836086D01*
X82010851Y-115418922D01*
X82771425Y-115734740D01*
X83594962Y-115735459D01*
X84356086Y-115420969D01*
X84938922Y-114839149D01*
X85254740Y-114078575D01*
X85255459Y-113255038D01*
X85100668Y-112880415D01*
X85178475Y-112880415D01*
X85550847Y-113781623D01*
X86239751Y-114471730D01*
X87140307Y-114845674D01*
X88115415Y-114846525D01*
X89016623Y-114474153D01*
X89706730Y-113785249D01*
X90080674Y-112884693D01*
X90081525Y-111909585D01*
X89709153Y-111008377D01*
X89020249Y-110318270D01*
X88119693Y-109944326D01*
X87144585Y-109943475D01*
X86243377Y-110315847D01*
X85553270Y-111004751D01*
X85179326Y-111905307D01*
X85178475Y-112880415D01*
X85100668Y-112880415D01*
X84940969Y-112493914D01*
X84842565Y-112395338D01*
X84938922Y-112299149D01*
X85254740Y-111538575D01*
X85255459Y-110715038D01*
X84940969Y-109953914D01*
X84842565Y-109855338D01*
X84938922Y-109759149D01*
X85254740Y-108998575D01*
X85255459Y-108175038D01*
X85213794Y-108074200D01*
X85311425Y-108114740D01*
X86134962Y-108115459D01*
X86896086Y-107800969D01*
X87478922Y-107219149D01*
X87782267Y-106488613D01*
X88144751Y-106851730D01*
X89045307Y-107225674D01*
X90020415Y-107226525D01*
X90848468Y-106884380D01*
X90321078Y-107410851D01*
X90005260Y-108171425D01*
X90004541Y-108994962D01*
X90319031Y-109756086D01*
X90417435Y-109854662D01*
X90321078Y-109950851D01*
X90005260Y-110711425D01*
X90004541Y-111534962D01*
X90319031Y-112296086D01*
X90417435Y-112394662D01*
X90321078Y-112490851D01*
X90005260Y-113251425D01*
X90004541Y-114074962D01*
X90319031Y-114836086D01*
X90900851Y-115418922D01*
X91661425Y-115734740D01*
X92484962Y-115735459D01*
X93246086Y-115420969D01*
X93828922Y-114839149D01*
X94132267Y-114108613D01*
X94494751Y-114471730D01*
X95395307Y-114845674D01*
X96370415Y-114846525D01*
X97271623Y-114474153D01*
X97790300Y-113956380D01*
X98304751Y-114471730D01*
X99205307Y-114845674D01*
X100180415Y-114846525D01*
X101081623Y-114474153D01*
X101771730Y-113785249D01*
X102124026Y-112936826D01*
X102384031Y-113566086D01*
X102482435Y-113664662D01*
X102386078Y-113760851D01*
X102070260Y-114521425D01*
X102069541Y-115344962D01*
X102384031Y-116106086D01*
X102482435Y-116204662D01*
X102386078Y-116300851D01*
X102070260Y-117061425D01*
X102069541Y-117884962D01*
X102384031Y-118646086D01*
X102965851Y-119228922D01*
X103726425Y-119544740D01*
X104549962Y-119545459D01*
X105311086Y-119230969D01*
X105893922Y-118649149D01*
X106209740Y-117888575D01*
X106210459Y-117065038D01*
X105895969Y-116303914D01*
X105797565Y-116205338D01*
X105893922Y-116109149D01*
X106209740Y-115348575D01*
X106210459Y-114525038D01*
X106024492Y-114074962D01*
X106514541Y-114074962D01*
X106829031Y-114836086D01*
X106927435Y-114934662D01*
X106831078Y-115030851D01*
X106515260Y-115791425D01*
X106514541Y-116614962D01*
X106829031Y-117376086D01*
X106927435Y-117474662D01*
X106831078Y-117570851D01*
X106515260Y-118331425D01*
X106514541Y-119154962D01*
X106829031Y-119916086D01*
X107410851Y-120498922D01*
X108171425Y-120814740D01*
X108994962Y-120815459D01*
X109756086Y-120500969D01*
X110074673Y-120182938D01*
X110315847Y-120766623D01*
X111004751Y-121456730D01*
X111905307Y-121830674D01*
X112880415Y-121831525D01*
X113781623Y-121459153D01*
X114471730Y-120770249D01*
X114845674Y-119869693D01*
X114846525Y-118894585D01*
X114474153Y-117993377D01*
X113785249Y-117303270D01*
X112884693Y-116929326D01*
X111909585Y-116928475D01*
X111008377Y-117300847D01*
X110455986Y-117852275D01*
X110340969Y-117573914D01*
X110242565Y-117475338D01*
X110338922Y-117379149D01*
X110654740Y-116618575D01*
X110655459Y-115795038D01*
X110340969Y-115033914D01*
X110242565Y-114935338D01*
X110338922Y-114839149D01*
X110380165Y-114739824D01*
X113753475Y-114739824D01*
X114125847Y-115641032D01*
X114814751Y-116331139D01*
X115715307Y-116705083D01*
X116690415Y-116705934D01*
X117591623Y-116333562D01*
X118281730Y-115644658D01*
X118655674Y-114744102D01*
X118656525Y-113768994D01*
X118284153Y-112867786D01*
X117595249Y-112177679D01*
X116694693Y-111803735D01*
X115719585Y-111802884D01*
X114818377Y-112175256D01*
X114128270Y-112864160D01*
X113754326Y-113764716D01*
X113753475Y-114739824D01*
X110380165Y-114739824D01*
X110654740Y-114078575D01*
X110655459Y-113255038D01*
X110340969Y-112493914D01*
X109759149Y-111911078D01*
X109159154Y-111661938D01*
X109218372Y-111622370D01*
X109270438Y-111193399D01*
X107950000Y-109872961D01*
X106629562Y-111193399D01*
X106681628Y-111622370D01*
X107382405Y-111940485D01*
X106831078Y-112490851D01*
X106515260Y-113251425D01*
X106514541Y-114074962D01*
X106024492Y-114074962D01*
X105895969Y-113763914D01*
X105797565Y-113665338D01*
X105893922Y-113569149D01*
X106209740Y-112808575D01*
X106210459Y-111985038D01*
X105895969Y-111223914D01*
X105314149Y-110641078D01*
X104553575Y-110325260D01*
X103730038Y-110324541D01*
X102968914Y-110639031D01*
X102386078Y-111220851D01*
X102123365Y-111853534D01*
X101774153Y-111008377D01*
X101254965Y-110488282D01*
X101808739Y-110718229D01*
X102657537Y-110718970D01*
X103442009Y-110394833D01*
X103629323Y-110207845D01*
X105803406Y-110207845D01*
X106101834Y-111002452D01*
X106182630Y-111123372D01*
X106611601Y-111175438D01*
X107932039Y-109855000D01*
X107967961Y-109855000D01*
X109288399Y-111175438D01*
X109717370Y-111123372D01*
X109869925Y-110787308D01*
X110845653Y-110787308D01*
X110936348Y-111249269D01*
X111823948Y-111653002D01*
X112798486Y-111686333D01*
X113711597Y-111344187D01*
X113853652Y-111249269D01*
X113944347Y-110787308D01*
X112395000Y-109237961D01*
X110845653Y-110787308D01*
X109869925Y-110787308D01*
X110068222Y-110350480D01*
X110079108Y-110024980D01*
X110270813Y-110536597D01*
X110365731Y-110678652D01*
X110827692Y-110769347D01*
X112377039Y-109220000D01*
X112412961Y-109220000D01*
X113962308Y-110769347D01*
X114424269Y-110678652D01*
X114828002Y-109791052D01*
X114861333Y-108816514D01*
X114519187Y-107903403D01*
X114424269Y-107761348D01*
X113962308Y-107670653D01*
X112412961Y-109220000D01*
X112377039Y-109220000D01*
X110827692Y-107670653D01*
X110365731Y-107761348D01*
X109961998Y-108648948D01*
X109946487Y-109102473D01*
X109798166Y-108707548D01*
X109717370Y-108586628D01*
X109288399Y-108534562D01*
X107967961Y-109855000D01*
X107932039Y-109855000D01*
X106611601Y-108534562D01*
X106182630Y-108586628D01*
X105831778Y-109359520D01*
X105803406Y-110207845D01*
X103629323Y-110207845D01*
X104042724Y-109795165D01*
X104368229Y-109011261D01*
X104368660Y-108516601D01*
X106629562Y-108516601D01*
X107950000Y-109837039D01*
X109270438Y-108516601D01*
X109218372Y-108087630D01*
X108445480Y-107736778D01*
X107597155Y-107708406D01*
X106802548Y-108006834D01*
X106681628Y-108087630D01*
X106629562Y-108516601D01*
X104368660Y-108516601D01*
X104368970Y-108162463D01*
X104044833Y-107377991D01*
X103445165Y-106777276D01*
X102661261Y-106451771D01*
X101812463Y-106451030D01*
X101254503Y-106681574D01*
X101771730Y-106165249D01*
X102124026Y-105316826D01*
X102384031Y-105946086D01*
X102965851Y-106528922D01*
X103726425Y-106844740D01*
X104549962Y-106845459D01*
X105311086Y-106530969D01*
X105893922Y-105949149D01*
X106010543Y-105668295D01*
X106140167Y-105982009D01*
X106739835Y-106582724D01*
X107523739Y-106908229D01*
X108372537Y-106908970D01*
X109157009Y-106584833D01*
X109709136Y-106033669D01*
X109950167Y-106617009D01*
X110549835Y-107217724D01*
X110902314Y-107364086D01*
X110845653Y-107652692D01*
X112395000Y-109202039D01*
X113944347Y-107652692D01*
X113853652Y-107190731D01*
X113264576Y-106922784D01*
X113567724Y-106620165D01*
X113893229Y-105836261D01*
X113893232Y-105832537D01*
X114706030Y-105832537D01*
X115030167Y-106617009D01*
X115629835Y-107217724D01*
X116413739Y-107543229D01*
X117262537Y-107543970D01*
X118047009Y-107219833D01*
X118647724Y-106620165D01*
X118881486Y-106057202D01*
X119205847Y-106842214D01*
X119894751Y-107532321D01*
X120795307Y-107906265D01*
X121770415Y-107907116D01*
X122671623Y-107534744D01*
X122961460Y-107245413D01*
X122961030Y-107737537D01*
X123285167Y-108522009D01*
X123347633Y-108584584D01*
X123287276Y-108644835D01*
X122961771Y-109428739D01*
X122961030Y-110277537D01*
X123285167Y-111062009D01*
X123347291Y-111124242D01*
X123327630Y-111126628D01*
X122976778Y-111899520D01*
X122948406Y-112747845D01*
X123246834Y-113542452D01*
X123327630Y-113663372D01*
X123346546Y-113665668D01*
X123287276Y-113724835D01*
X122961771Y-114508739D01*
X122961030Y-115357537D01*
X123285167Y-116142009D01*
X123884835Y-116742724D01*
X124118708Y-116839837D01*
X123887991Y-116935167D01*
X123287276Y-117534835D01*
X122961771Y-118318739D01*
X122961030Y-119167537D01*
X123285167Y-119952009D01*
X123884835Y-120552724D01*
X124668739Y-120878229D01*
X125517537Y-120878970D01*
X126302009Y-120554833D01*
X126774266Y-120083399D01*
X128854562Y-120083399D01*
X128906628Y-120512370D01*
X129679520Y-120863222D01*
X130527845Y-120891594D01*
X131322452Y-120593166D01*
X131443372Y-120512370D01*
X131495438Y-120083399D01*
X130175000Y-118762961D01*
X128854562Y-120083399D01*
X126774266Y-120083399D01*
X126902724Y-119955165D01*
X127228229Y-119171261D01*
X127228293Y-119097845D01*
X128028406Y-119097845D01*
X128326834Y-119892452D01*
X128407630Y-120013372D01*
X128836601Y-120065438D01*
X130157039Y-118745000D01*
X130192961Y-118745000D01*
X131513399Y-120065438D01*
X131942370Y-120013372D01*
X132293222Y-119240480D01*
X132321594Y-118392155D01*
X132023166Y-117597548D01*
X131942370Y-117476628D01*
X131513399Y-117424562D01*
X130192961Y-118745000D01*
X130157039Y-118745000D01*
X128836601Y-117424562D01*
X128407630Y-117476628D01*
X128056778Y-118249520D01*
X128028406Y-119097845D01*
X127228293Y-119097845D01*
X127228970Y-118322463D01*
X126904833Y-117537991D01*
X126773673Y-117406601D01*
X128854562Y-117406601D01*
X130175000Y-118727039D01*
X131495438Y-117406601D01*
X131443372Y-116977630D01*
X130670480Y-116626778D01*
X129822155Y-116598406D01*
X129027548Y-116896834D01*
X128906628Y-116977630D01*
X128854562Y-117406601D01*
X126773673Y-117406601D01*
X126305165Y-116937276D01*
X126071292Y-116840163D01*
X126302009Y-116744833D01*
X126902724Y-116145165D01*
X127228229Y-115361261D01*
X127228970Y-114512463D01*
X126904833Y-113727991D01*
X126842709Y-113665758D01*
X126862370Y-113663372D01*
X127213222Y-112890480D01*
X127241594Y-112042155D01*
X126943166Y-111247548D01*
X126862370Y-111126628D01*
X126843454Y-111124332D01*
X126902724Y-111065165D01*
X127228229Y-110281261D01*
X127228970Y-109432463D01*
X126904833Y-108647991D01*
X126842367Y-108585416D01*
X126902724Y-108525165D01*
X127228229Y-107741261D01*
X127228970Y-106892463D01*
X126904833Y-106107991D01*
X126305165Y-105507276D01*
X125521261Y-105181771D01*
X124672463Y-105181030D01*
X123887991Y-105505167D01*
X123735926Y-105656967D01*
X123736525Y-104970176D01*
X123364153Y-104068968D01*
X123222969Y-103927537D01*
X128041030Y-103927537D01*
X128365167Y-104712009D01*
X128964835Y-105312724D01*
X129748739Y-105638229D01*
X130597537Y-105638970D01*
X131382009Y-105314833D01*
X131444584Y-105252367D01*
X131504835Y-105312724D01*
X131738708Y-105409837D01*
X131507991Y-105505167D01*
X130907276Y-106104835D01*
X130581771Y-106888739D01*
X130581030Y-107737537D01*
X130905167Y-108522009D01*
X130967633Y-108584584D01*
X130907276Y-108644835D01*
X130581771Y-109428739D01*
X130581030Y-110277537D01*
X130905167Y-111062009D01*
X130967633Y-111124584D01*
X130907276Y-111184835D01*
X130581771Y-111968739D01*
X130581030Y-112817537D01*
X130905167Y-113602009D01*
X130967633Y-113664584D01*
X130907276Y-113724835D01*
X130581771Y-114508739D01*
X130581030Y-115357537D01*
X130905167Y-116142009D01*
X131504835Y-116742724D01*
X132288739Y-117068229D01*
X133137537Y-117068970D01*
X133922009Y-116744833D01*
X134522724Y-116145165D01*
X134616012Y-115920503D01*
X134676834Y-116082452D01*
X134757630Y-116203372D01*
X135186601Y-116255438D01*
X136507039Y-114935000D01*
X135186601Y-113614562D01*
X134757630Y-113666628D01*
X134622488Y-113964333D01*
X134524833Y-113727991D01*
X134462367Y-113665416D01*
X134522724Y-113605165D01*
X134848229Y-112821261D01*
X134848970Y-111972463D01*
X134524833Y-111187991D01*
X134462367Y-111125416D01*
X134522724Y-111065165D01*
X134619837Y-110831292D01*
X134715167Y-111062009D01*
X135314835Y-111662724D01*
X136098739Y-111988229D01*
X136947537Y-111988970D01*
X137684877Y-111684307D01*
X137566771Y-111968739D01*
X137566030Y-112817537D01*
X137691595Y-113121429D01*
X137020480Y-112816778D01*
X136172155Y-112788406D01*
X135377548Y-113086834D01*
X135256628Y-113167630D01*
X135204562Y-113596601D01*
X136525000Y-114917039D01*
X136539142Y-114902897D01*
X136557103Y-114920858D01*
X136542961Y-114935000D01*
X136557103Y-114949142D01*
X136539142Y-114967103D01*
X136525000Y-114952961D01*
X135204562Y-116273399D01*
X135256628Y-116702370D01*
X136029520Y-117053222D01*
X136877845Y-117081594D01*
X137672452Y-116783166D01*
X137678811Y-116778917D01*
X137566771Y-117048739D01*
X137566030Y-117897537D01*
X137890167Y-118682009D01*
X138489835Y-119282724D01*
X139273739Y-119608229D01*
X140122537Y-119608970D01*
X140804501Y-119327188D01*
X140804475Y-119357415D01*
X141176847Y-120258623D01*
X141865751Y-120948730D01*
X142766307Y-121322674D01*
X143741415Y-121323525D01*
X144642623Y-120951153D01*
X145332730Y-120262249D01*
X145706674Y-119361693D01*
X145707525Y-118386585D01*
X145335153Y-117485377D01*
X144646249Y-116795270D01*
X143745693Y-116421326D01*
X142770585Y-116420475D01*
X141869377Y-116792847D01*
X141768364Y-116893684D01*
X141509833Y-116267991D01*
X140910165Y-115667276D01*
X140126261Y-115341771D01*
X139277463Y-115341030D01*
X138546775Y-115642944D01*
X138643222Y-115430480D01*
X138671594Y-114582155D01*
X138536346Y-114222037D01*
X139273739Y-114528229D01*
X140122537Y-114528970D01*
X140907009Y-114204833D01*
X141507724Y-113605165D01*
X141833229Y-112821261D01*
X141833293Y-112747845D01*
X145808406Y-112747845D01*
X146106834Y-113542452D01*
X146187630Y-113663372D01*
X146206546Y-113665668D01*
X146147276Y-113724835D01*
X145821771Y-114508739D01*
X145821030Y-115357537D01*
X146145167Y-116142009D01*
X146744835Y-116742724D01*
X146978708Y-116839837D01*
X146747991Y-116935167D01*
X146147276Y-117534835D01*
X145821771Y-118318739D01*
X145821030Y-119167537D01*
X146145167Y-119952009D01*
X146744835Y-120552724D01*
X147528739Y-120878229D01*
X148377537Y-120878970D01*
X149162009Y-120554833D01*
X149634266Y-120083399D01*
X151714562Y-120083399D01*
X151766628Y-120512370D01*
X152539520Y-120863222D01*
X153387845Y-120891594D01*
X154182452Y-120593166D01*
X154303372Y-120512370D01*
X154355438Y-120083399D01*
X153035000Y-118762961D01*
X151714562Y-120083399D01*
X149634266Y-120083399D01*
X149762724Y-119955165D01*
X150088229Y-119171261D01*
X150088293Y-119097845D01*
X150888406Y-119097845D01*
X151186834Y-119892452D01*
X151267630Y-120013372D01*
X151696601Y-120065438D01*
X153017039Y-118745000D01*
X153052961Y-118745000D01*
X154373399Y-120065438D01*
X154802370Y-120013372D01*
X155045016Y-119478845D01*
X163715406Y-119478845D01*
X164013834Y-120273452D01*
X164094630Y-120394372D01*
X164113546Y-120396668D01*
X164054276Y-120455835D01*
X163728771Y-121239739D01*
X163728030Y-122088537D01*
X164052167Y-122873009D01*
X164651835Y-123473724D01*
X165435739Y-123799229D01*
X166284537Y-123799970D01*
X167069009Y-123475833D01*
X167669724Y-122876165D01*
X167995229Y-122092261D01*
X167995970Y-121243463D01*
X167671833Y-120458991D01*
X167609709Y-120396758D01*
X167629370Y-120394372D01*
X167980222Y-119621480D01*
X167984653Y-119488973D01*
X170255458Y-119488973D01*
X170562630Y-120307281D01*
X170624480Y-120399848D01*
X170604475Y-120419818D01*
X170269282Y-121227052D01*
X170268519Y-122101113D01*
X170602303Y-122908931D01*
X171219818Y-123527525D01*
X172027052Y-123862718D01*
X172901113Y-123863481D01*
X173708931Y-123529697D01*
X174327525Y-122912182D01*
X174662718Y-122104948D01*
X174663481Y-121230887D01*
X174329697Y-120423069D01*
X174302414Y-120395738D01*
X174647178Y-119636593D01*
X174676542Y-118763027D01*
X174369370Y-117944719D01*
X174285751Y-117819572D01*
X173850181Y-117759779D01*
X172483961Y-119126000D01*
X172498103Y-119140142D01*
X172480142Y-119158103D01*
X172466000Y-119143961D01*
X172451858Y-119158103D01*
X172433897Y-119140142D01*
X172448039Y-119126000D01*
X171081819Y-117759779D01*
X170646249Y-117819572D01*
X170284822Y-118615407D01*
X170255458Y-119488973D01*
X167984653Y-119488973D01*
X168008594Y-118773155D01*
X167710166Y-117978548D01*
X167629370Y-117857628D01*
X167200399Y-117805562D01*
X165879961Y-119126000D01*
X165894103Y-119140142D01*
X165876142Y-119158103D01*
X165862000Y-119143961D01*
X165847858Y-119158103D01*
X165829897Y-119140142D01*
X165844039Y-119126000D01*
X164523601Y-117805562D01*
X164094630Y-117857628D01*
X163743778Y-118630520D01*
X163715406Y-119478845D01*
X155045016Y-119478845D01*
X155153222Y-119240480D01*
X155181594Y-118392155D01*
X154954544Y-117787601D01*
X164541562Y-117787601D01*
X165862000Y-119108039D01*
X167182438Y-117787601D01*
X167176882Y-117741819D01*
X171099779Y-117741819D01*
X172466000Y-119108039D01*
X173832221Y-117741819D01*
X173772428Y-117306249D01*
X172976593Y-116944822D01*
X172103027Y-116915458D01*
X171284719Y-117222630D01*
X171159572Y-117306249D01*
X171099779Y-117741819D01*
X167176882Y-117741819D01*
X167130372Y-117358630D01*
X166357480Y-117007778D01*
X165509155Y-116979406D01*
X164714548Y-117277834D01*
X164593628Y-117358630D01*
X164541562Y-117787601D01*
X154954544Y-117787601D01*
X154883166Y-117597548D01*
X154802370Y-117476628D01*
X154373399Y-117424562D01*
X153052961Y-118745000D01*
X153017039Y-118745000D01*
X151696601Y-117424562D01*
X151267630Y-117476628D01*
X150916778Y-118249520D01*
X150888406Y-119097845D01*
X150088293Y-119097845D01*
X150088970Y-118322463D01*
X149764833Y-117537991D01*
X149633673Y-117406601D01*
X151714562Y-117406601D01*
X153035000Y-118727039D01*
X154355438Y-117406601D01*
X154303372Y-116977630D01*
X153530480Y-116626778D01*
X152682155Y-116598406D01*
X151887548Y-116896834D01*
X151766628Y-116977630D01*
X151714562Y-117406601D01*
X149633673Y-117406601D01*
X149165165Y-116937276D01*
X148931292Y-116840163D01*
X149162009Y-116744833D01*
X149762724Y-116145165D01*
X150088229Y-115361261D01*
X150088970Y-114512463D01*
X149764833Y-113727991D01*
X149702709Y-113665758D01*
X149722370Y-113663372D01*
X150073222Y-112890480D01*
X150101594Y-112042155D01*
X149803166Y-111247548D01*
X149722370Y-111126628D01*
X149703454Y-111124332D01*
X149762724Y-111065165D01*
X150088229Y-110281261D01*
X150088970Y-109432463D01*
X149764833Y-108647991D01*
X149702367Y-108585416D01*
X149762724Y-108525165D01*
X150088229Y-107741261D01*
X150088232Y-107737537D01*
X153441030Y-107737537D01*
X153765167Y-108522009D01*
X153827633Y-108584584D01*
X153767276Y-108644835D01*
X153441771Y-109428739D01*
X153441030Y-110277537D01*
X153765167Y-111062009D01*
X153827633Y-111124584D01*
X153767276Y-111184835D01*
X153441771Y-111968739D01*
X153441030Y-112817537D01*
X153765167Y-113602009D01*
X153827633Y-113664584D01*
X153767276Y-113724835D01*
X153441771Y-114508739D01*
X153441030Y-115357537D01*
X153765167Y-116142009D01*
X154364835Y-116742724D01*
X155148739Y-117068229D01*
X155997537Y-117068970D01*
X156782009Y-116744833D01*
X157254266Y-116273399D01*
X158064562Y-116273399D01*
X158116628Y-116702370D01*
X158889520Y-117053222D01*
X159737845Y-117081594D01*
X160532452Y-116783166D01*
X160653372Y-116702370D01*
X160705438Y-116273399D01*
X159385000Y-114952961D01*
X158064562Y-116273399D01*
X157254266Y-116273399D01*
X157382724Y-116145165D01*
X157476012Y-115920503D01*
X157536834Y-116082452D01*
X157617630Y-116203372D01*
X158046601Y-116255438D01*
X159367039Y-114935000D01*
X158046601Y-113614562D01*
X157617630Y-113666628D01*
X157482488Y-113964333D01*
X157384833Y-113727991D01*
X157322367Y-113665416D01*
X157382724Y-113605165D01*
X157708229Y-112821261D01*
X157708970Y-111972463D01*
X157384833Y-111187991D01*
X157322367Y-111125416D01*
X157382724Y-111065165D01*
X157479837Y-110831292D01*
X157575167Y-111062009D01*
X158174835Y-111662724D01*
X158958739Y-111988229D01*
X159807537Y-111988970D01*
X160129893Y-111855775D01*
X160109326Y-111905307D01*
X160108475Y-112880415D01*
X160128748Y-112929478D01*
X159880480Y-112816778D01*
X159032155Y-112788406D01*
X158237548Y-113086834D01*
X158116628Y-113167630D01*
X158064562Y-113596601D01*
X159385000Y-114917039D01*
X159399142Y-114902897D01*
X159417103Y-114920858D01*
X159402961Y-114935000D01*
X160723399Y-116255438D01*
X161152370Y-116203372D01*
X161234590Y-116022248D01*
X173710653Y-116022248D01*
X173801348Y-116484209D01*
X174688948Y-116887942D01*
X175663486Y-116921273D01*
X176576597Y-116579127D01*
X176718652Y-116484209D01*
X176809347Y-116022248D01*
X175260000Y-114472901D01*
X173710653Y-116022248D01*
X161234590Y-116022248D01*
X161503222Y-115430480D01*
X161522353Y-114858426D01*
X172793667Y-114858426D01*
X173135813Y-115771537D01*
X173230731Y-115913592D01*
X173692692Y-116004287D01*
X175242039Y-114454940D01*
X173692692Y-112905593D01*
X173230731Y-112996288D01*
X172826998Y-113883888D01*
X172793667Y-114858426D01*
X161522353Y-114858426D01*
X161530280Y-114621435D01*
X162070307Y-114845674D01*
X163045415Y-114846525D01*
X163946623Y-114474153D01*
X164636730Y-113785249D01*
X165010674Y-112884693D01*
X165011525Y-111909585D01*
X164639153Y-111008377D01*
X163950249Y-110318270D01*
X163049693Y-109944326D01*
X162074585Y-109943475D01*
X161518323Y-110173318D01*
X161518970Y-109432463D01*
X161194833Y-108647991D01*
X160595165Y-108047276D01*
X159811261Y-107721771D01*
X158962463Y-107721030D01*
X158177991Y-108045167D01*
X157577276Y-108644835D01*
X157480163Y-108878708D01*
X157384833Y-108647991D01*
X157322367Y-108585416D01*
X157382724Y-108525165D01*
X157708229Y-107741261D01*
X157708970Y-106892463D01*
X157384833Y-106107991D01*
X156785165Y-105507276D01*
X156001261Y-105181771D01*
X155152463Y-105181030D01*
X154367991Y-105505167D01*
X153767276Y-106104835D01*
X153441771Y-106888739D01*
X153441030Y-107737537D01*
X150088232Y-107737537D01*
X150088970Y-106892463D01*
X149764833Y-106107991D01*
X149165165Y-105507276D01*
X148381261Y-105181771D01*
X147532463Y-105181030D01*
X146747991Y-105505167D01*
X146147276Y-106104835D01*
X145821771Y-106888739D01*
X145821030Y-107737537D01*
X146145167Y-108522009D01*
X146207633Y-108584584D01*
X146147276Y-108644835D01*
X145821771Y-109428739D01*
X145821030Y-110277537D01*
X146145167Y-111062009D01*
X146207291Y-111124242D01*
X146187630Y-111126628D01*
X145836778Y-111899520D01*
X145808406Y-112747845D01*
X141833293Y-112747845D01*
X141833970Y-111972463D01*
X141509833Y-111187991D01*
X140910165Y-110587276D01*
X140126261Y-110261771D01*
X139277463Y-110261030D01*
X138540123Y-110565693D01*
X138658229Y-110281261D01*
X138658970Y-109432463D01*
X138561851Y-109197415D01*
X140804475Y-109197415D01*
X141176847Y-110098623D01*
X141865751Y-110788730D01*
X142766307Y-111162674D01*
X143741415Y-111163525D01*
X144642623Y-110791153D01*
X145332730Y-110102249D01*
X145706674Y-109201693D01*
X145707525Y-108226585D01*
X145335153Y-107325377D01*
X144646249Y-106635270D01*
X143745693Y-106261326D01*
X142770585Y-106260475D01*
X141869377Y-106632847D01*
X141179270Y-107321751D01*
X140805326Y-108222307D01*
X140804475Y-109197415D01*
X138561851Y-109197415D01*
X138334833Y-108647991D01*
X137735165Y-108047276D01*
X136951261Y-107721771D01*
X136102463Y-107721030D01*
X135317991Y-108045167D01*
X134717276Y-108644835D01*
X134620163Y-108878708D01*
X134524833Y-108647991D01*
X134462367Y-108585416D01*
X134522724Y-108525165D01*
X134848229Y-107741261D01*
X134848970Y-106892463D01*
X134524833Y-106107991D01*
X133925165Y-105507276D01*
X133691292Y-105410163D01*
X133922009Y-105314833D01*
X134522724Y-104715165D01*
X134848229Y-103931261D01*
X134848970Y-103082463D01*
X134524833Y-102297991D01*
X133925165Y-101697276D01*
X133141261Y-101371771D01*
X132600181Y-101371299D01*
X132886730Y-101085249D01*
X133260674Y-100184693D01*
X133260677Y-100180415D01*
X138518475Y-100180415D01*
X138890847Y-101081623D01*
X139579751Y-101771730D01*
X140480307Y-102145674D01*
X141455415Y-102146525D01*
X141860986Y-101978946D01*
X141694326Y-102380307D01*
X141693475Y-103355415D01*
X142065847Y-104256623D01*
X142754751Y-104946730D01*
X143655307Y-105320674D01*
X144630415Y-105321525D01*
X145531623Y-104949153D01*
X146221730Y-104260249D01*
X146595674Y-103359693D01*
X146595677Y-103355415D01*
X151853475Y-103355415D01*
X152225847Y-104256623D01*
X152914751Y-104946730D01*
X153815307Y-105320674D01*
X154790415Y-105321525D01*
X155691623Y-104949153D01*
X156381730Y-104260249D01*
X156755674Y-103359693D01*
X156756231Y-102720415D01*
X160108475Y-102720415D01*
X160480847Y-103621623D01*
X161169751Y-104311730D01*
X162070307Y-104685674D01*
X163045415Y-104686525D01*
X163946623Y-104314153D01*
X164636730Y-103625249D01*
X165010674Y-102724693D01*
X165010793Y-102587845D01*
X167271406Y-102587845D01*
X167569834Y-103382452D01*
X167650630Y-103503372D01*
X167669546Y-103505668D01*
X167610276Y-103564835D01*
X167284771Y-104348739D01*
X167284030Y-105197537D01*
X167608167Y-105982009D01*
X167670633Y-106044584D01*
X167610276Y-106104835D01*
X167284771Y-106888739D01*
X167284030Y-107737537D01*
X167608167Y-108522009D01*
X167670633Y-108584584D01*
X167610276Y-108644835D01*
X167284771Y-109428739D01*
X167284030Y-110277537D01*
X167608167Y-111062009D01*
X168207835Y-111662724D01*
X168991739Y-111988229D01*
X169840537Y-111988970D01*
X169982235Y-111930422D01*
X170148167Y-112332009D01*
X170747835Y-112932724D01*
X171531739Y-113258229D01*
X172380537Y-113258970D01*
X173165009Y-112934833D01*
X173212292Y-112887632D01*
X173710653Y-112887632D01*
X175260000Y-114436979D01*
X175274142Y-114422837D01*
X175292103Y-114440798D01*
X175277961Y-114454940D01*
X176827308Y-116004287D01*
X177289269Y-115913592D01*
X177512010Y-115423899D01*
X177585806Y-115457559D01*
X178812770Y-115500807D01*
X179962888Y-115071225D01*
X180147212Y-114948064D01*
X180315163Y-114420123D01*
X178308000Y-112412961D01*
X178293858Y-112427103D01*
X178275897Y-112409142D01*
X178290039Y-112395000D01*
X176282877Y-110387837D01*
X175754936Y-110555788D01*
X175245441Y-111672806D01*
X175233855Y-112001513D01*
X174856514Y-111988607D01*
X173943403Y-112330753D01*
X173801348Y-112425671D01*
X173710653Y-112887632D01*
X173212292Y-112887632D01*
X173765724Y-112335165D01*
X174091229Y-111551261D01*
X174091970Y-110702463D01*
X173767833Y-109917991D01*
X173705367Y-109855416D01*
X173765724Y-109795165D01*
X174091229Y-109011261D01*
X174091970Y-108162463D01*
X173767833Y-107377991D01*
X173705367Y-107315416D01*
X173765724Y-107255165D01*
X174091229Y-106471261D01*
X174091970Y-105622463D01*
X173767833Y-104837991D01*
X173705367Y-104775416D01*
X173765724Y-104715165D01*
X174091229Y-103931261D01*
X174091970Y-103082463D01*
X174053816Y-102990123D01*
X176300837Y-102990123D01*
X176468788Y-103518064D01*
X177585806Y-104027559D01*
X178812770Y-104070807D01*
X179962888Y-103641225D01*
X180147212Y-103518064D01*
X180315163Y-102990123D01*
X178308000Y-100982961D01*
X176300837Y-102990123D01*
X174053816Y-102990123D01*
X173767833Y-102297991D01*
X173168165Y-101697276D01*
X172384261Y-101371771D01*
X171535463Y-101371030D01*
X171394506Y-101429272D01*
X171266166Y-101087548D01*
X171185370Y-100966628D01*
X170756399Y-100914562D01*
X169435961Y-102235000D01*
X169450103Y-102249142D01*
X169432142Y-102267103D01*
X169418000Y-102252961D01*
X169403858Y-102267103D01*
X169385897Y-102249142D01*
X169400039Y-102235000D01*
X168079601Y-100914562D01*
X167650630Y-100966628D01*
X167299778Y-101739520D01*
X167271406Y-102587845D01*
X165010793Y-102587845D01*
X165011525Y-101749585D01*
X164659079Y-100896601D01*
X168097562Y-100896601D01*
X169418000Y-102217039D01*
X170738438Y-100896601D01*
X170686372Y-100467630D01*
X169913480Y-100116778D01*
X169065155Y-100088406D01*
X168270548Y-100386834D01*
X168149628Y-100467630D01*
X168097562Y-100896601D01*
X164659079Y-100896601D01*
X164639153Y-100848377D01*
X163950249Y-100158270D01*
X163049693Y-99784326D01*
X162074585Y-99783475D01*
X161173377Y-100155847D01*
X160483270Y-100844751D01*
X160109326Y-101745307D01*
X160108475Y-102720415D01*
X156756231Y-102720415D01*
X156756525Y-102384585D01*
X156384153Y-101483377D01*
X155695249Y-100793270D01*
X154794693Y-100419326D01*
X153819585Y-100418475D01*
X152918377Y-100790847D01*
X152228270Y-101479751D01*
X151854326Y-102380307D01*
X151853475Y-103355415D01*
X146595677Y-103355415D01*
X146596525Y-102384585D01*
X146224153Y-101483377D01*
X145535249Y-100793270D01*
X144634693Y-100419326D01*
X143659585Y-100418475D01*
X143254014Y-100586054D01*
X143420674Y-100184693D01*
X143421286Y-99482537D01*
X145821030Y-99482537D01*
X146145167Y-100267009D01*
X146744835Y-100867724D01*
X147528739Y-101193229D01*
X148377537Y-101193970D01*
X149162009Y-100869833D01*
X149224584Y-100807367D01*
X149284835Y-100867724D01*
X150068739Y-101193229D01*
X150917537Y-101193970D01*
X151702009Y-100869833D01*
X152302724Y-100270165D01*
X152628229Y-99486261D01*
X152628384Y-99308546D01*
X172793667Y-99308546D01*
X173135813Y-100221657D01*
X173230731Y-100363712D01*
X173692692Y-100454407D01*
X175242039Y-98905060D01*
X173692692Y-97355713D01*
X173230731Y-97446408D01*
X172826998Y-98334008D01*
X172793667Y-99308546D01*
X152628384Y-99308546D01*
X152628970Y-98637463D01*
X152304833Y-97852991D01*
X151790493Y-97337752D01*
X173710653Y-97337752D01*
X175260000Y-98887099D01*
X176809347Y-97337752D01*
X176718652Y-96875791D01*
X175831052Y-96472058D01*
X174856514Y-96438727D01*
X173943403Y-96780873D01*
X173801348Y-96875791D01*
X173710653Y-97337752D01*
X151790493Y-97337752D01*
X151705165Y-97252276D01*
X150921261Y-96926771D01*
X150072463Y-96926030D01*
X149287991Y-97250167D01*
X149225416Y-97312633D01*
X149165165Y-97252276D01*
X148381261Y-96926771D01*
X147532463Y-96926030D01*
X146747991Y-97250167D01*
X146147276Y-97849835D01*
X145821771Y-98633739D01*
X145821030Y-99482537D01*
X143421286Y-99482537D01*
X143421525Y-99209585D01*
X143049153Y-98308377D01*
X142360249Y-97618270D01*
X141459693Y-97244326D01*
X140484585Y-97243475D01*
X139583377Y-97615847D01*
X138893270Y-98304751D01*
X138519326Y-99205307D01*
X138518475Y-100180415D01*
X133260677Y-100180415D01*
X133261525Y-99209585D01*
X132889153Y-98308377D01*
X132200249Y-97618270D01*
X131299693Y-97244326D01*
X130324585Y-97243475D01*
X129423377Y-97615847D01*
X128733270Y-98304751D01*
X128359326Y-99205307D01*
X128358475Y-100180415D01*
X128730847Y-101081623D01*
X129233717Y-101585371D01*
X128967991Y-101695167D01*
X128367276Y-102294835D01*
X128041771Y-103078739D01*
X128041030Y-103927537D01*
X123222969Y-103927537D01*
X122675249Y-103378861D01*
X121774693Y-103004917D01*
X120799585Y-103004066D01*
X119898377Y-103376438D01*
X119208270Y-104065342D01*
X118899854Y-104808089D01*
X118649833Y-104202991D01*
X118050165Y-103602276D01*
X117266261Y-103276771D01*
X116417463Y-103276030D01*
X115632991Y-103600167D01*
X115032276Y-104199835D01*
X114706771Y-104983739D01*
X114706030Y-105832537D01*
X113893232Y-105832537D01*
X113893970Y-104987463D01*
X113569833Y-104202991D01*
X112970165Y-103602276D01*
X112186261Y-103276771D01*
X111949146Y-103276564D01*
X112511623Y-103044153D01*
X113009185Y-102547459D01*
X113031628Y-102732370D01*
X113804520Y-103083222D01*
X114652845Y-103111594D01*
X115447452Y-102813166D01*
X115568372Y-102732370D01*
X115620438Y-102303399D01*
X114300000Y-100982961D01*
X114285858Y-100997103D01*
X114267897Y-100979142D01*
X114282039Y-100965000D01*
X114317961Y-100965000D01*
X115638399Y-102285438D01*
X116067370Y-102233372D01*
X116418222Y-101460480D01*
X116446594Y-100612155D01*
X116148166Y-99817548D01*
X116067370Y-99696628D01*
X115638399Y-99644562D01*
X114317961Y-100965000D01*
X114282039Y-100965000D01*
X114267897Y-100950858D01*
X114285858Y-100932897D01*
X114300000Y-100947039D01*
X115620438Y-99626601D01*
X115568372Y-99197630D01*
X114795480Y-98846778D01*
X113947155Y-98818406D01*
X113152548Y-99116834D01*
X113031628Y-99197630D01*
X113009128Y-99383011D01*
X112515249Y-98888270D01*
X111614693Y-98514326D01*
X110639585Y-98513475D01*
X109738377Y-98885847D01*
X109735062Y-98889157D01*
X110019740Y-98203575D01*
X110020459Y-97380038D01*
X109705969Y-96618914D01*
X109607565Y-96520338D01*
X109703922Y-96424149D01*
X109752343Y-96307537D01*
X112166030Y-96307537D01*
X112490167Y-97092009D01*
X113089835Y-97692724D01*
X113873739Y-98018229D01*
X114722537Y-98018970D01*
X115507009Y-97694833D01*
X116107724Y-97095165D01*
X116200039Y-96872845D01*
X120408406Y-96872845D01*
X120706834Y-97667452D01*
X120787630Y-97788372D01*
X120806546Y-97790668D01*
X120747276Y-97849835D01*
X120421771Y-98633739D01*
X120421030Y-99482537D01*
X120745167Y-100267009D01*
X121344835Y-100867724D01*
X122128739Y-101193229D01*
X122977537Y-101193970D01*
X123762009Y-100869833D01*
X124362724Y-100270165D01*
X124688229Y-99486261D01*
X124688970Y-98637463D01*
X124364833Y-97852991D01*
X124302709Y-97790758D01*
X124322370Y-97788372D01*
X124673222Y-97015480D01*
X124701594Y-96167155D01*
X124403166Y-95372548D01*
X124322370Y-95251628D01*
X123893399Y-95199562D01*
X122572961Y-96520000D01*
X122587103Y-96534142D01*
X122569142Y-96552103D01*
X122555000Y-96537961D01*
X122540858Y-96552103D01*
X122522897Y-96534142D01*
X122537039Y-96520000D01*
X121216601Y-95199562D01*
X120787630Y-95251628D01*
X120436778Y-96024520D01*
X120408406Y-96872845D01*
X116200039Y-96872845D01*
X116433229Y-96311261D01*
X116433970Y-95462463D01*
X116317921Y-95181601D01*
X121234562Y-95181601D01*
X122555000Y-96502039D01*
X123875438Y-95181601D01*
X123823372Y-94752630D01*
X123391095Y-94556399D01*
X156159562Y-94556399D01*
X156211628Y-94985370D01*
X156984520Y-95336222D01*
X157832845Y-95364594D01*
X158627452Y-95066166D01*
X158748372Y-94985370D01*
X158794881Y-94602181D01*
X167543779Y-94602181D01*
X167603572Y-95037751D01*
X168399407Y-95399178D01*
X169272973Y-95428542D01*
X170091281Y-95121370D01*
X170216428Y-95037751D01*
X170276221Y-94602181D01*
X168910000Y-93235961D01*
X167543779Y-94602181D01*
X158794881Y-94602181D01*
X158800438Y-94556399D01*
X157480000Y-93235961D01*
X156159562Y-94556399D01*
X123391095Y-94556399D01*
X123050480Y-94401778D01*
X122202155Y-94373406D01*
X121407548Y-94671834D01*
X121286628Y-94752630D01*
X121234562Y-95181601D01*
X116317921Y-95181601D01*
X116109833Y-94677991D01*
X115510165Y-94077276D01*
X114726261Y-93751771D01*
X113877463Y-93751030D01*
X113092991Y-94075167D01*
X112492276Y-94674835D01*
X112166771Y-95458739D01*
X112166030Y-96307537D01*
X109752343Y-96307537D01*
X110019740Y-95663575D01*
X110020459Y-94840038D01*
X109705969Y-94078914D01*
X109198786Y-93570845D01*
X155333406Y-93570845D01*
X155631834Y-94365452D01*
X155712630Y-94486372D01*
X156141601Y-94538438D01*
X157462039Y-93218000D01*
X157447897Y-93203858D01*
X157465858Y-93185897D01*
X157480000Y-93200039D01*
X157494142Y-93185897D01*
X157512103Y-93203858D01*
X157497961Y-93218000D01*
X158818399Y-94538438D01*
X159247370Y-94486372D01*
X159598222Y-93713480D01*
X159602653Y-93580973D01*
X166699458Y-93580973D01*
X167006630Y-94399281D01*
X167090249Y-94524428D01*
X167525819Y-94584221D01*
X168892039Y-93218000D01*
X168877897Y-93203858D01*
X168895858Y-93185897D01*
X168910000Y-93200039D01*
X168924142Y-93185897D01*
X168942103Y-93203858D01*
X168927961Y-93218000D01*
X170294181Y-94584221D01*
X170729751Y-94524428D01*
X171091178Y-93728593D01*
X171120542Y-92855027D01*
X170813370Y-92036719D01*
X170751520Y-91944152D01*
X170771525Y-91924182D01*
X171106718Y-91116948D01*
X171107481Y-90242887D01*
X170773697Y-89435069D01*
X170156182Y-88816475D01*
X169348948Y-88481282D01*
X168474887Y-88480519D01*
X167667069Y-88814303D01*
X167048475Y-89431818D01*
X166713282Y-90239052D01*
X166712519Y-91113113D01*
X167046303Y-91920931D01*
X167073586Y-91948262D01*
X166728822Y-92707407D01*
X166699458Y-93580973D01*
X159602653Y-93580973D01*
X159626594Y-92865155D01*
X159328166Y-92070548D01*
X159247370Y-91949628D01*
X159228454Y-91947332D01*
X159287724Y-91888165D01*
X159613229Y-91104261D01*
X159613970Y-90255463D01*
X159289833Y-89470991D01*
X158690165Y-88870276D01*
X157906261Y-88544771D01*
X157057463Y-88544030D01*
X156272991Y-88868167D01*
X155672276Y-89467835D01*
X155346771Y-90251739D01*
X155346030Y-91100537D01*
X155670167Y-91885009D01*
X155732291Y-91947242D01*
X155712630Y-91949628D01*
X155361778Y-92722520D01*
X155333406Y-93570845D01*
X109198786Y-93570845D01*
X109124149Y-93496078D01*
X108363575Y-93180260D01*
X107540038Y-93179541D01*
X106778914Y-93494031D01*
X106196078Y-94075851D01*
X105880260Y-94836425D01*
X105879541Y-95659962D01*
X106194031Y-96421086D01*
X106292435Y-96519662D01*
X106196078Y-96615851D01*
X105880260Y-97376425D01*
X105879541Y-98199962D01*
X106194031Y-98961086D01*
X106292435Y-99059662D01*
X106196078Y-99155851D01*
X106176531Y-99202926D01*
X105895969Y-98523914D01*
X105314149Y-97941078D01*
X104553575Y-97625260D01*
X103730038Y-97624541D01*
X103670224Y-97649256D01*
X103670459Y-97380038D01*
X103355969Y-96618914D01*
X103257565Y-96520338D01*
X103353922Y-96424149D01*
X103669740Y-95663575D01*
X103670459Y-94840038D01*
X103355969Y-94078914D01*
X103257565Y-93980338D01*
X103353922Y-93884149D01*
X103669740Y-93123575D01*
X103670459Y-92300038D01*
X103355969Y-91538914D01*
X103107904Y-91290415D01*
X108673475Y-91290415D01*
X109045847Y-92191623D01*
X109734751Y-92881730D01*
X110635307Y-93255674D01*
X111610415Y-93256525D01*
X112511623Y-92884153D01*
X113201730Y-92195249D01*
X113575674Y-91294693D01*
X113575721Y-91240113D01*
X130517519Y-91240113D01*
X130851303Y-92047931D01*
X131468818Y-92666525D01*
X132276052Y-93001718D01*
X133150113Y-93002481D01*
X133957931Y-92668697D01*
X133985262Y-92641414D01*
X134744407Y-92986178D01*
X135617973Y-93015542D01*
X136436281Y-92708370D01*
X136528848Y-92646520D01*
X136548818Y-92666525D01*
X137356052Y-93001718D01*
X138230113Y-93002481D01*
X139037931Y-92668697D01*
X139656525Y-92051182D01*
X139991718Y-91243948D01*
X139992481Y-90369887D01*
X139658697Y-89562069D01*
X139041182Y-88943475D01*
X138233948Y-88608282D01*
X137359887Y-88607519D01*
X136552069Y-88941303D01*
X136524738Y-88968586D01*
X135765593Y-88623822D01*
X134892027Y-88594458D01*
X134073719Y-88901630D01*
X133981152Y-88963480D01*
X133961182Y-88943475D01*
X133153948Y-88608282D01*
X132279887Y-88607519D01*
X131472069Y-88941303D01*
X130853475Y-89558818D01*
X130518282Y-90366052D01*
X130517519Y-91240113D01*
X113575721Y-91240113D01*
X113576525Y-90319585D01*
X113204153Y-89418377D01*
X112515249Y-88728270D01*
X111614693Y-88354326D01*
X110639585Y-88353475D01*
X109738377Y-88725847D01*
X109048270Y-89414751D01*
X108674326Y-90315307D01*
X108673475Y-91290415D01*
X103107904Y-91290415D01*
X102774149Y-90956078D01*
X102013575Y-90640260D01*
X101190038Y-90639541D01*
X100428914Y-90954031D01*
X99846078Y-91535851D01*
X99530260Y-92296425D01*
X99529541Y-93119962D01*
X99844031Y-93881086D01*
X99942435Y-93979662D01*
X99846078Y-94075851D01*
X99530260Y-94836425D01*
X99529541Y-95659962D01*
X99844031Y-96421086D01*
X99942435Y-96519662D01*
X99846078Y-96615851D01*
X99530260Y-97376425D01*
X99529541Y-98199962D01*
X99844031Y-98961086D01*
X100425851Y-99543922D01*
X101186425Y-99859740D01*
X102009962Y-99860459D01*
X102069776Y-99835744D01*
X102069541Y-100104962D01*
X102384031Y-100866086D01*
X102482435Y-100964662D01*
X102386078Y-101060851D01*
X102070260Y-101821425D01*
X102069541Y-102644962D01*
X102384031Y-103406086D01*
X102482435Y-103504662D01*
X102386078Y-103600851D01*
X102123365Y-104233534D01*
X101774153Y-103388377D01*
X101085249Y-102698270D01*
X100184693Y-102324326D01*
X99244911Y-102323506D01*
X99605674Y-101454693D01*
X99606525Y-100479585D01*
X99234153Y-99578377D01*
X98545249Y-98888270D01*
X97644693Y-98514326D01*
X96669585Y-98513475D01*
X95768377Y-98885847D01*
X95249700Y-99403620D01*
X94735249Y-98888270D01*
X93834693Y-98514326D01*
X92859585Y-98513475D01*
X91958377Y-98885847D01*
X91439700Y-99403620D01*
X90925249Y-98888270D01*
X90024693Y-98514326D01*
X89049585Y-98513475D01*
X88148377Y-98885847D01*
X87458270Y-99574751D01*
X87400668Y-99713473D01*
X86899149Y-99211078D01*
X86138575Y-98895260D01*
X85315038Y-98894541D01*
X84553914Y-99209031D01*
X84049570Y-99712496D01*
X83994153Y-99578377D01*
X83305249Y-98888270D01*
X82404693Y-98514326D01*
X81429585Y-98513475D01*
X80528377Y-98885847D01*
X80525062Y-98889157D01*
X80809740Y-98203575D01*
X80810459Y-97380038D01*
X80495969Y-96618914D01*
X80397565Y-96520338D01*
X80493922Y-96424149D01*
X80809740Y-95663575D01*
X80810459Y-94840038D01*
X80495969Y-94078914D01*
X80397565Y-93980338D01*
X80493922Y-93884149D01*
X80809740Y-93123575D01*
X80809848Y-93000113D01*
X81425307Y-93255674D01*
X82400415Y-93256525D01*
X83301623Y-92884153D01*
X83991730Y-92195249D01*
X84365674Y-91294693D01*
X84365677Y-91290415D01*
X87083475Y-91290415D01*
X87455847Y-92191623D01*
X88144751Y-92881730D01*
X89045307Y-93255674D01*
X90020415Y-93256525D01*
X90921623Y-92884153D01*
X91440300Y-92366380D01*
X91954751Y-92881730D01*
X92855307Y-93255674D01*
X93830415Y-93256525D01*
X94731623Y-92884153D01*
X95250300Y-92366380D01*
X95764751Y-92881730D01*
X96665307Y-93255674D01*
X97640415Y-93256525D01*
X98541623Y-92884153D01*
X99231730Y-92195249D01*
X99605674Y-91294693D01*
X99606525Y-90319585D01*
X99234153Y-89418377D01*
X98545249Y-88728270D01*
X97644693Y-88354326D01*
X96669585Y-88353475D01*
X95768377Y-88725847D01*
X95249700Y-89243620D01*
X94735249Y-88728270D01*
X93834693Y-88354326D01*
X92859585Y-88353475D01*
X91958377Y-88725847D01*
X91439700Y-89243620D01*
X90925249Y-88728270D01*
X90024693Y-88354326D01*
X89049585Y-88353475D01*
X88148377Y-88725847D01*
X87458270Y-89414751D01*
X87084326Y-90315307D01*
X87083475Y-91290415D01*
X84365677Y-91290415D01*
X84366525Y-90319585D01*
X83994153Y-89418377D01*
X83305249Y-88728270D01*
X82404693Y-88354326D01*
X81429585Y-88353475D01*
X80528377Y-88725847D01*
X79838270Y-89414751D01*
X79464326Y-90315307D01*
X79463930Y-90769131D01*
X79153575Y-90640260D01*
X78330038Y-90639541D01*
X77568914Y-90954031D01*
X76986078Y-91535851D01*
X76670260Y-92296425D01*
X76669541Y-93119962D01*
X76984031Y-93881086D01*
X77082435Y-93979662D01*
X76986078Y-94075851D01*
X76682733Y-94806387D01*
X76320249Y-94443270D01*
X75419693Y-94069326D01*
X74444585Y-94068475D01*
X73543377Y-94440847D01*
X72853270Y-95129751D01*
X72479326Y-96030307D01*
X72478475Y-97005415D01*
X45706100Y-97005415D01*
X45706100Y-95015749D01*
X51052212Y-95015749D01*
X51374671Y-95675651D01*
X52950519Y-96396670D01*
X54682334Y-96459755D01*
X56306465Y-95855300D01*
X56575329Y-95675651D01*
X56897788Y-95015749D01*
X53975000Y-92092961D01*
X51052212Y-95015749D01*
X45706100Y-95015749D01*
X45706100Y-92782334D01*
X49590245Y-92782334D01*
X50194700Y-94406465D01*
X50374349Y-94675329D01*
X51034251Y-94997788D01*
X53957039Y-92075000D01*
X53992961Y-92075000D01*
X56915749Y-94997788D01*
X57575651Y-94675329D01*
X58296670Y-93099481D01*
X58359755Y-91367666D01*
X58331005Y-91290415D01*
X68668475Y-91290415D01*
X69040847Y-92191623D01*
X69729751Y-92881730D01*
X70630307Y-93255674D01*
X71605415Y-93256525D01*
X72506623Y-92884153D01*
X73196730Y-92195249D01*
X73570674Y-91294693D01*
X73571525Y-90319585D01*
X73199153Y-89418377D01*
X72510249Y-88728270D01*
X71609693Y-88354326D01*
X70634585Y-88353475D01*
X69733377Y-88725847D01*
X69043270Y-89414751D01*
X68669326Y-90315307D01*
X68668475Y-91290415D01*
X58331005Y-91290415D01*
X57755300Y-89743535D01*
X57575651Y-89474671D01*
X56915749Y-89152212D01*
X53992961Y-92075000D01*
X53957039Y-92075000D01*
X51034251Y-89152212D01*
X50374349Y-89474671D01*
X49653330Y-91050519D01*
X49590245Y-92782334D01*
X45706100Y-92782334D01*
X45706100Y-89134251D01*
X51052212Y-89134251D01*
X53975000Y-92057039D01*
X56897788Y-89134251D01*
X56575329Y-88474349D01*
X54999481Y-87753330D01*
X53267666Y-87690245D01*
X51643535Y-88294700D01*
X51374671Y-88474349D01*
X51052212Y-89134251D01*
X45706100Y-89134251D01*
X45706100Y-86981100D01*
X182893900Y-86981100D01*
X182893900Y-98546652D01*
X182893900Y-98546652D01*
G37*
X182893900Y-98546652D02*
X182112461Y-98222171D01*
X181263663Y-98221430D01*
X180479191Y-98545567D01*
X180259493Y-98764882D01*
X180147212Y-98411936D01*
X179030194Y-97902441D01*
X177803230Y-97859193D01*
X177524623Y-97963256D01*
X177384187Y-97588463D01*
X177289269Y-97446408D01*
X176827308Y-97355713D01*
X175277961Y-98905060D01*
X175292103Y-98919202D01*
X175274142Y-98937163D01*
X175260000Y-98923021D01*
X173710653Y-100472368D01*
X173801348Y-100934329D01*
X174688948Y-101338062D01*
X175206212Y-101355753D01*
X175202193Y-101469770D01*
X175631775Y-102619888D01*
X175754936Y-102804212D01*
X176282877Y-102972163D01*
X178290039Y-100965000D01*
X178275897Y-100950858D01*
X178293858Y-100932897D01*
X178308000Y-100947039D01*
X178322142Y-100932897D01*
X178340103Y-100950858D01*
X178325961Y-100965000D01*
X180333123Y-102972163D01*
X180861064Y-102804212D01*
X181045603Y-102399629D01*
X181088847Y-102417586D01*
X181061066Y-103248245D01*
X181359494Y-104042852D01*
X181440290Y-104163772D01*
X181869261Y-104215838D01*
X182893900Y-103191199D01*
X182893900Y-103227121D01*
X181887222Y-104233799D01*
X181939288Y-104662770D01*
X182712180Y-105013622D01*
X182893900Y-105019700D01*
X182893900Y-108669688D01*
X182181680Y-108346378D01*
X181333355Y-108318006D01*
X180538748Y-108616434D01*
X180417828Y-108697230D01*
X180365762Y-109126201D01*
X181686200Y-110446639D01*
X181700342Y-110432497D01*
X181718303Y-110450458D01*
X181704161Y-110464600D01*
X181718303Y-110478742D01*
X181700342Y-110496703D01*
X181686200Y-110482561D01*
X181672058Y-110496703D01*
X181654097Y-110478742D01*
X181668239Y-110464600D01*
X180347801Y-109144162D01*
X179918830Y-109196228D01*
X179715169Y-109644872D01*
X179030194Y-109332441D01*
X177803230Y-109289193D01*
X176653112Y-109718775D01*
X176468788Y-109841936D01*
X176300837Y-110369877D01*
X178308000Y-112377039D01*
X178322142Y-112362897D01*
X178340103Y-112380858D01*
X178325961Y-112395000D01*
X180333123Y-114402163D01*
X180861064Y-114234212D01*
X181151340Y-113597811D01*
X181359494Y-114152052D01*
X181440290Y-114272972D01*
X181869261Y-114325038D01*
X182893900Y-113300399D01*
X182893900Y-113336321D01*
X181887222Y-114342999D01*
X181939288Y-114771970D01*
X182712180Y-115122822D01*
X182893900Y-115128900D01*
X182893900Y-128918900D01*
X45706100Y-128918900D01*
X45706100Y-126765749D01*
X51052212Y-126765749D01*
X51374671Y-127425651D01*
X52950519Y-128146670D01*
X54682334Y-128209755D01*
X56306465Y-127605300D01*
X56575329Y-127425651D01*
X56897788Y-126765749D01*
X53975000Y-123842961D01*
X51052212Y-126765749D01*
X45706100Y-126765749D01*
X45706100Y-124532334D01*
X49590245Y-124532334D01*
X50194700Y-126156465D01*
X50374349Y-126425329D01*
X51034251Y-126747788D01*
X53957039Y-123825000D01*
X53992961Y-123825000D01*
X56915749Y-126747788D01*
X57575651Y-126425329D01*
X58296670Y-124849481D01*
X58323158Y-124122308D01*
X77190653Y-124122308D01*
X77281348Y-124584269D01*
X78168948Y-124988002D01*
X79143486Y-125021333D01*
X80056597Y-124679187D01*
X80198652Y-124584269D01*
X80289347Y-124122308D01*
X86080653Y-124122308D01*
X86171348Y-124584269D01*
X87058948Y-124988002D01*
X88033486Y-125021333D01*
X88946597Y-124679187D01*
X89088652Y-124584269D01*
X89179347Y-124122308D01*
X94335653Y-124122308D01*
X94426348Y-124584269D01*
X95313948Y-124988002D01*
X96288486Y-125021333D01*
X97201597Y-124679187D01*
X97343652Y-124584269D01*
X97434347Y-124122308D01*
X98145653Y-124122308D01*
X98236348Y-124584269D01*
X99123948Y-124988002D01*
X100098486Y-125021333D01*
X101011597Y-124679187D01*
X101153652Y-124584269D01*
X101244347Y-124122308D01*
X99695000Y-122572961D01*
X98145653Y-124122308D01*
X97434347Y-124122308D01*
X95885000Y-122572961D01*
X94335653Y-124122308D01*
X89179347Y-124122308D01*
X87630000Y-122572961D01*
X86080653Y-124122308D01*
X80289347Y-124122308D01*
X78740000Y-122572961D01*
X77190653Y-124122308D01*
X58323158Y-124122308D01*
X58359755Y-123117666D01*
X57755300Y-121493535D01*
X57575651Y-121224671D01*
X57392992Y-121135415D01*
X70700475Y-121135415D01*
X71072847Y-122036623D01*
X71761751Y-122726730D01*
X72662307Y-123100674D01*
X73637415Y-123101525D01*
X73983595Y-122958486D01*
X76273667Y-122958486D01*
X76615813Y-123871597D01*
X76710731Y-124013652D01*
X77172692Y-124104347D01*
X78722039Y-122555000D01*
X78757961Y-122555000D01*
X80307308Y-124104347D01*
X80769269Y-124013652D01*
X81173002Y-123126052D01*
X81178733Y-122958486D01*
X85163667Y-122958486D01*
X85505813Y-123871597D01*
X85600731Y-124013652D01*
X86062692Y-124104347D01*
X87612039Y-122555000D01*
X87647961Y-122555000D01*
X89197308Y-124104347D01*
X89659269Y-124013652D01*
X90063002Y-123126052D01*
X90068733Y-122958486D01*
X93418667Y-122958486D01*
X93760813Y-123871597D01*
X93855731Y-124013652D01*
X94317692Y-124104347D01*
X95867039Y-122555000D01*
X95902961Y-122555000D01*
X97452308Y-124104347D01*
X97790000Y-124038049D01*
X98127692Y-124104347D01*
X99677039Y-122555000D01*
X99712961Y-122555000D01*
X101262308Y-124104347D01*
X101724269Y-124013652D01*
X102128002Y-123126052D01*
X102161333Y-122151514D01*
X101819187Y-121238403D01*
X101724269Y-121096348D01*
X101262308Y-121005653D01*
X99712961Y-122555000D01*
X99677039Y-122555000D01*
X98127692Y-121005653D01*
X97790000Y-121071951D01*
X97452308Y-121005653D01*
X95902961Y-122555000D01*
X95867039Y-122555000D01*
X94317692Y-121005653D01*
X93855731Y-121096348D01*
X93451998Y-121983948D01*
X93418667Y-122958486D01*
X90068733Y-122958486D01*
X90096333Y-122151514D01*
X89754187Y-121238403D01*
X89659269Y-121096348D01*
X89197308Y-121005653D01*
X87647961Y-122555000D01*
X87612039Y-122555000D01*
X86062692Y-121005653D01*
X85600731Y-121096348D01*
X85196998Y-121983948D01*
X85163667Y-122958486D01*
X81178733Y-122958486D01*
X81206333Y-122151514D01*
X80864187Y-121238403D01*
X80769269Y-121096348D01*
X80307308Y-121005653D01*
X78757961Y-122555000D01*
X78722039Y-122555000D01*
X77172692Y-121005653D01*
X76710731Y-121096348D01*
X76306998Y-121983948D01*
X76273667Y-122958486D01*
X73983595Y-122958486D01*
X74538623Y-122729153D01*
X75228730Y-122040249D01*
X75602674Y-121139693D01*
X75602806Y-120987692D01*
X77190653Y-120987692D01*
X78740000Y-122537039D01*
X80289347Y-120987692D01*
X86080653Y-120987692D01*
X87630000Y-122537039D01*
X89179347Y-120987692D01*
X94335653Y-120987692D01*
X95885000Y-122537039D01*
X97434347Y-120987692D01*
X98145653Y-120987692D01*
X99695000Y-122537039D01*
X101244347Y-120987692D01*
X101153652Y-120525731D01*
X100266052Y-120121998D01*
X99291514Y-120088667D01*
X98378403Y-120430813D01*
X98236348Y-120525731D01*
X98145653Y-120987692D01*
X97434347Y-120987692D01*
X97343652Y-120525731D01*
X96456052Y-120121998D01*
X95481514Y-120088667D01*
X94568403Y-120430813D01*
X94426348Y-120525731D01*
X94335653Y-120987692D01*
X89179347Y-120987692D01*
X89088652Y-120525731D01*
X88201052Y-120121998D01*
X87226514Y-120088667D01*
X86313403Y-120430813D01*
X86171348Y-120525731D01*
X86080653Y-120987692D01*
X80289347Y-120987692D01*
X80198652Y-120525731D01*
X79311052Y-120121998D01*
X78336514Y-120088667D01*
X77423403Y-120430813D01*
X77281348Y-120525731D01*
X77190653Y-120987692D01*
X75602806Y-120987692D01*
X75603525Y-120164585D01*
X75231153Y-119263377D01*
X74542249Y-118573270D01*
X73641693Y-118199326D01*
X72666585Y-118198475D01*
X71765377Y-118570847D01*
X71075270Y-119259751D01*
X70701326Y-120160307D01*
X70700475Y-121135415D01*
X57392992Y-121135415D01*
X56915749Y-120902212D01*
X53992961Y-123825000D01*
X53957039Y-123825000D01*
X51034251Y-120902212D01*
X50374349Y-121224671D01*
X49653330Y-122800519D01*
X49590245Y-124532334D01*
X45706100Y-124532334D01*
X45706100Y-120884251D01*
X51052212Y-120884251D01*
X53975000Y-123807039D01*
X56897788Y-120884251D01*
X56575329Y-120224349D01*
X54999481Y-119503330D01*
X53267666Y-119440245D01*
X51643535Y-120044700D01*
X51374671Y-120224349D01*
X51052212Y-120884251D01*
X45706100Y-120884251D01*
X45706100Y-117897537D01*
X61366030Y-117897537D01*
X61690167Y-118682009D01*
X62289835Y-119282724D01*
X63073739Y-119608229D01*
X63922537Y-119608970D01*
X64707009Y-119284833D01*
X64769242Y-119222709D01*
X64771628Y-119242370D01*
X65544520Y-119593222D01*
X66392845Y-119621594D01*
X67187452Y-119323166D01*
X67308372Y-119242370D01*
X67360438Y-118813399D01*
X66040000Y-117492961D01*
X66025858Y-117507103D01*
X66007897Y-117489142D01*
X66022039Y-117475000D01*
X66057961Y-117475000D01*
X67378399Y-118795438D01*
X67807370Y-118743372D01*
X68158222Y-117970480D01*
X68186594Y-117122155D01*
X67888166Y-116327548D01*
X67807370Y-116206628D01*
X67378399Y-116154562D01*
X66057961Y-117475000D01*
X66022039Y-117475000D01*
X66007897Y-117460858D01*
X66025858Y-117442897D01*
X66040000Y-117457039D01*
X67360438Y-116136601D01*
X67308372Y-115707630D01*
X66535480Y-115356778D01*
X65687155Y-115328406D01*
X64892548Y-115626834D01*
X64771628Y-115707630D01*
X64769332Y-115726546D01*
X64710165Y-115667276D01*
X63926261Y-115341771D01*
X63077463Y-115341030D01*
X62292991Y-115665167D01*
X61692276Y-116264835D01*
X61366771Y-117048739D01*
X61366030Y-117897537D01*
X45706100Y-117897537D01*
X45706100Y-110975415D01*
X70700475Y-110975415D01*
X71072847Y-111876623D01*
X71761751Y-112566730D01*
X72662307Y-112940674D01*
X73637415Y-112941525D01*
X73785312Y-112880415D01*
X76288475Y-112880415D01*
X76660847Y-113781623D01*
X77349751Y-114471730D01*
X78250307Y-114845674D01*
X79225415Y-114846525D01*
X80126623Y-114474153D01*
X80816730Y-113785249D01*
X81190674Y-112884693D01*
X81191525Y-111909585D01*
X80819153Y-111008377D01*
X80130249Y-110318270D01*
X79229693Y-109944326D01*
X78254585Y-109943475D01*
X77353377Y-110315847D01*
X76663270Y-111004751D01*
X76289326Y-111905307D01*
X76288475Y-112880415D01*
X73785312Y-112880415D01*
X74538623Y-112569153D01*
X75228730Y-111880249D01*
X75602674Y-110979693D01*
X75603525Y-110004585D01*
X75247690Y-109143399D01*
X75333486Y-109146333D01*
X76246597Y-108804187D01*
X76388652Y-108709269D01*
X76479347Y-108247308D01*
X74930000Y-106697961D01*
X74915858Y-106712103D01*
X74897897Y-106694142D01*
X74912039Y-106680000D01*
X74947961Y-106680000D01*
X76497308Y-108229347D01*
X76959269Y-108138652D01*
X77363002Y-107251052D01*
X77396333Y-106276514D01*
X77054187Y-105363403D01*
X76959269Y-105221348D01*
X76497308Y-105130653D01*
X74947961Y-106680000D01*
X74912039Y-106680000D01*
X73362692Y-105130653D01*
X72900731Y-105221348D01*
X72496998Y-106108948D01*
X72463667Y-107083486D01*
X72805813Y-107996597D01*
X72833893Y-108038621D01*
X72666585Y-108038475D01*
X71765377Y-108410847D01*
X71075270Y-109099751D01*
X70701326Y-110000307D01*
X70700475Y-110975415D01*
X45706100Y-110975415D01*
X45706100Y-105197537D01*
X61366030Y-105197537D01*
X61690167Y-105982009D01*
X62289835Y-106582724D01*
X63073739Y-106908229D01*
X63922537Y-106908970D01*
X64707009Y-106584833D01*
X64769584Y-106522367D01*
X64829835Y-106582724D01*
X65613739Y-106908229D01*
X66462537Y-106908970D01*
X67247009Y-106584833D01*
X67847724Y-105985165D01*
X68173229Y-105201261D01*
X68173306Y-105112692D01*
X73380653Y-105112692D01*
X74930000Y-106662039D01*
X76479347Y-105112692D01*
X76388652Y-104650731D01*
X75501052Y-104246998D01*
X74526514Y-104213667D01*
X73613403Y-104555813D01*
X73471348Y-104650731D01*
X73380653Y-105112692D01*
X68173306Y-105112692D01*
X68173970Y-104352463D01*
X67849833Y-103567991D01*
X67250165Y-102967276D01*
X66466261Y-102641771D01*
X65617463Y-102641030D01*
X64832991Y-102965167D01*
X64770416Y-103027633D01*
X64710165Y-102967276D01*
X63926261Y-102641771D01*
X63077463Y-102641030D01*
X62292991Y-102965167D01*
X61692276Y-103564835D01*
X61366771Y-104348739D01*
X61366030Y-105197537D01*
X45706100Y-105197537D01*
X45706100Y-101450415D01*
X68668475Y-101450415D01*
X69040847Y-102351623D01*
X69729751Y-103041730D01*
X70630307Y-103415674D01*
X71605415Y-103416525D01*
X72506623Y-103044153D01*
X73196730Y-102355249D01*
X73570674Y-101454693D01*
X73571525Y-100479585D01*
X73199153Y-99578377D01*
X72510249Y-98888270D01*
X71609693Y-98514326D01*
X70634585Y-98513475D01*
X69733377Y-98885847D01*
X69043270Y-99574751D01*
X68669326Y-100475307D01*
X68668475Y-101450415D01*
X45706100Y-101450415D01*
X45706100Y-97005415D01*
X72478475Y-97005415D01*
X72850847Y-97906623D01*
X73539751Y-98596730D01*
X74440307Y-98970674D01*
X75415415Y-98971525D01*
X76316623Y-98599153D01*
X76683257Y-98233158D01*
X76984031Y-98961086D01*
X77565851Y-99543922D01*
X78326425Y-99859740D01*
X79149962Y-99860459D01*
X79837616Y-99576326D01*
X79464326Y-100475307D01*
X79463475Y-101450415D01*
X79835847Y-102351623D01*
X80524751Y-103041730D01*
X81425307Y-103415674D01*
X82400415Y-103416525D01*
X83301623Y-103044153D01*
X83939153Y-102407734D01*
X83655260Y-103091425D01*
X83654541Y-103914962D01*
X83969031Y-104676086D01*
X84067435Y-104774662D01*
X83971078Y-104870851D01*
X83655260Y-105631425D01*
X83654541Y-106454962D01*
X83696206Y-106555800D01*
X83598575Y-106515260D01*
X82775038Y-106514541D01*
X82013914Y-106829031D01*
X81431078Y-107410851D01*
X81115260Y-108171425D01*
X81114541Y-108994962D01*
X81429031Y-109756086D01*
X81527435Y-109854662D01*
X81431078Y-109950851D01*
X81115260Y-110711425D01*
X81114541Y-111534962D01*
X81429031Y-112296086D01*
X81527435Y-112394662D01*
X81431078Y-112490851D01*
X81115260Y-113251425D01*
X81114541Y-114074962D01*
X81429031Y-114836086D01*
X82010851Y-115418922D01*
X82771425Y-115734740D01*
X83594962Y-115735459D01*
X84356086Y-115420969D01*
X84938922Y-114839149D01*
X85254740Y-114078575D01*
X85255459Y-113255038D01*
X85100668Y-112880415D01*
X85178475Y-112880415D01*
X85550847Y-113781623D01*
X86239751Y-114471730D01*
X87140307Y-114845674D01*
X88115415Y-114846525D01*
X89016623Y-114474153D01*
X89706730Y-113785249D01*
X90080674Y-112884693D01*
X90081525Y-111909585D01*
X89709153Y-111008377D01*
X89020249Y-110318270D01*
X88119693Y-109944326D01*
X87144585Y-109943475D01*
X86243377Y-110315847D01*
X85553270Y-111004751D01*
X85179326Y-111905307D01*
X85178475Y-112880415D01*
X85100668Y-112880415D01*
X84940969Y-112493914D01*
X84842565Y-112395338D01*
X84938922Y-112299149D01*
X85254740Y-111538575D01*
X85255459Y-110715038D01*
X84940969Y-109953914D01*
X84842565Y-109855338D01*
X84938922Y-109759149D01*
X85254740Y-108998575D01*
X85255459Y-108175038D01*
X85213794Y-108074200D01*
X85311425Y-108114740D01*
X86134962Y-108115459D01*
X86896086Y-107800969D01*
X87478922Y-107219149D01*
X87782267Y-106488613D01*
X88144751Y-106851730D01*
X89045307Y-107225674D01*
X90020415Y-107226525D01*
X90848468Y-106884380D01*
X90321078Y-107410851D01*
X90005260Y-108171425D01*
X90004541Y-108994962D01*
X90319031Y-109756086D01*
X90417435Y-109854662D01*
X90321078Y-109950851D01*
X90005260Y-110711425D01*
X90004541Y-111534962D01*
X90319031Y-112296086D01*
X90417435Y-112394662D01*
X90321078Y-112490851D01*
X90005260Y-113251425D01*
X90004541Y-114074962D01*
X90319031Y-114836086D01*
X90900851Y-115418922D01*
X91661425Y-115734740D01*
X92484962Y-115735459D01*
X93246086Y-115420969D01*
X93828922Y-114839149D01*
X94132267Y-114108613D01*
X94494751Y-114471730D01*
X95395307Y-114845674D01*
X96370415Y-114846525D01*
X97271623Y-114474153D01*
X97790300Y-113956380D01*
X98304751Y-114471730D01*
X99205307Y-114845674D01*
X100180415Y-114846525D01*
X101081623Y-114474153D01*
X101771730Y-113785249D01*
X102124026Y-112936826D01*
X102384031Y-113566086D01*
X102482435Y-113664662D01*
X102386078Y-113760851D01*
X102070260Y-114521425D01*
X102069541Y-115344962D01*
X102384031Y-116106086D01*
X102482435Y-116204662D01*
X102386078Y-116300851D01*
X102070260Y-117061425D01*
X102069541Y-117884962D01*
X102384031Y-118646086D01*
X102965851Y-119228922D01*
X103726425Y-119544740D01*
X104549962Y-119545459D01*
X105311086Y-119230969D01*
X105893922Y-118649149D01*
X106209740Y-117888575D01*
X106210459Y-117065038D01*
X105895969Y-116303914D01*
X105797565Y-116205338D01*
X105893922Y-116109149D01*
X106209740Y-115348575D01*
X106210459Y-114525038D01*
X106024492Y-114074962D01*
X106514541Y-114074962D01*
X106829031Y-114836086D01*
X106927435Y-114934662D01*
X106831078Y-115030851D01*
X106515260Y-115791425D01*
X106514541Y-116614962D01*
X106829031Y-117376086D01*
X106927435Y-117474662D01*
X106831078Y-117570851D01*
X106515260Y-118331425D01*
X106514541Y-119154962D01*
X106829031Y-119916086D01*
X107410851Y-120498922D01*
X108171425Y-120814740D01*
X108994962Y-120815459D01*
X109756086Y-120500969D01*
X110074673Y-120182938D01*
X110315847Y-120766623D01*
X111004751Y-121456730D01*
X111905307Y-121830674D01*
X112880415Y-121831525D01*
X113781623Y-121459153D01*
X114471730Y-120770249D01*
X114845674Y-119869693D01*
X114846525Y-118894585D01*
X114474153Y-117993377D01*
X113785249Y-117303270D01*
X112884693Y-116929326D01*
X111909585Y-116928475D01*
X111008377Y-117300847D01*
X110455986Y-117852275D01*
X110340969Y-117573914D01*
X110242565Y-117475338D01*
X110338922Y-117379149D01*
X110654740Y-116618575D01*
X110655459Y-115795038D01*
X110340969Y-115033914D01*
X110242565Y-114935338D01*
X110338922Y-114839149D01*
X110380165Y-114739824D01*
X113753475Y-114739824D01*
X114125847Y-115641032D01*
X114814751Y-116331139D01*
X115715307Y-116705083D01*
X116690415Y-116705934D01*
X117591623Y-116333562D01*
X118281730Y-115644658D01*
X118655674Y-114744102D01*
X118656525Y-113768994D01*
X118284153Y-112867786D01*
X117595249Y-112177679D01*
X116694693Y-111803735D01*
X115719585Y-111802884D01*
X114818377Y-112175256D01*
X114128270Y-112864160D01*
X113754326Y-113764716D01*
X113753475Y-114739824D01*
X110380165Y-114739824D01*
X110654740Y-114078575D01*
X110655459Y-113255038D01*
X110340969Y-112493914D01*
X109759149Y-111911078D01*
X109159154Y-111661938D01*
X109218372Y-111622370D01*
X109270438Y-111193399D01*
X107950000Y-109872961D01*
X106629562Y-111193399D01*
X106681628Y-111622370D01*
X107382405Y-111940485D01*
X106831078Y-112490851D01*
X106515260Y-113251425D01*
X106514541Y-114074962D01*
X106024492Y-114074962D01*
X105895969Y-113763914D01*
X105797565Y-113665338D01*
X105893922Y-113569149D01*
X106209740Y-112808575D01*
X106210459Y-111985038D01*
X105895969Y-111223914D01*
X105314149Y-110641078D01*
X104553575Y-110325260D01*
X103730038Y-110324541D01*
X102968914Y-110639031D01*
X102386078Y-111220851D01*
X102123365Y-111853534D01*
X101774153Y-111008377D01*
X101254965Y-110488282D01*
X101808739Y-110718229D01*
X102657537Y-110718970D01*
X103442009Y-110394833D01*
X103629323Y-110207845D01*
X105803406Y-110207845D01*
X106101834Y-111002452D01*
X106182630Y-111123372D01*
X106611601Y-111175438D01*
X107932039Y-109855000D01*
X107967961Y-109855000D01*
X109288399Y-111175438D01*
X109717370Y-111123372D01*
X109869925Y-110787308D01*
X110845653Y-110787308D01*
X110936348Y-111249269D01*
X111823948Y-111653002D01*
X112798486Y-111686333D01*
X113711597Y-111344187D01*
X113853652Y-111249269D01*
X113944347Y-110787308D01*
X112395000Y-109237961D01*
X110845653Y-110787308D01*
X109869925Y-110787308D01*
X110068222Y-110350480D01*
X110079108Y-110024980D01*
X110270813Y-110536597D01*
X110365731Y-110678652D01*
X110827692Y-110769347D01*
X112377039Y-109220000D01*
X112412961Y-109220000D01*
X113962308Y-110769347D01*
X114424269Y-110678652D01*
X114828002Y-109791052D01*
X114861333Y-108816514D01*
X114519187Y-107903403D01*
X114424269Y-107761348D01*
X113962308Y-107670653D01*
X112412961Y-109220000D01*
X112377039Y-109220000D01*
X110827692Y-107670653D01*
X110365731Y-107761348D01*
X109961998Y-108648948D01*
X109946487Y-109102473D01*
X109798166Y-108707548D01*
X109717370Y-108586628D01*
X109288399Y-108534562D01*
X107967961Y-109855000D01*
X107932039Y-109855000D01*
X106611601Y-108534562D01*
X106182630Y-108586628D01*
X105831778Y-109359520D01*
X105803406Y-110207845D01*
X103629323Y-110207845D01*
X104042724Y-109795165D01*
X104368229Y-109011261D01*
X104368660Y-108516601D01*
X106629562Y-108516601D01*
X107950000Y-109837039D01*
X109270438Y-108516601D01*
X109218372Y-108087630D01*
X108445480Y-107736778D01*
X107597155Y-107708406D01*
X106802548Y-108006834D01*
X106681628Y-108087630D01*
X106629562Y-108516601D01*
X104368660Y-108516601D01*
X104368970Y-108162463D01*
X104044833Y-107377991D01*
X103445165Y-106777276D01*
X102661261Y-106451771D01*
X101812463Y-106451030D01*
X101254503Y-106681574D01*
X101771730Y-106165249D01*
X102124026Y-105316826D01*
X102384031Y-105946086D01*
X102965851Y-106528922D01*
X103726425Y-106844740D01*
X104549962Y-106845459D01*
X105311086Y-106530969D01*
X105893922Y-105949149D01*
X106010543Y-105668295D01*
X106140167Y-105982009D01*
X106739835Y-106582724D01*
X107523739Y-106908229D01*
X108372537Y-106908970D01*
X109157009Y-106584833D01*
X109709136Y-106033669D01*
X109950167Y-106617009D01*
X110549835Y-107217724D01*
X110902314Y-107364086D01*
X110845653Y-107652692D01*
X112395000Y-109202039D01*
X113944347Y-107652692D01*
X113853652Y-107190731D01*
X113264576Y-106922784D01*
X113567724Y-106620165D01*
X113893229Y-105836261D01*
X113893232Y-105832537D01*
X114706030Y-105832537D01*
X115030167Y-106617009D01*
X115629835Y-107217724D01*
X116413739Y-107543229D01*
X117262537Y-107543970D01*
X118047009Y-107219833D01*
X118647724Y-106620165D01*
X118881486Y-106057202D01*
X119205847Y-106842214D01*
X119894751Y-107532321D01*
X120795307Y-107906265D01*
X121770415Y-107907116D01*
X122671623Y-107534744D01*
X122961460Y-107245413D01*
X122961030Y-107737537D01*
X123285167Y-108522009D01*
X123347633Y-108584584D01*
X123287276Y-108644835D01*
X122961771Y-109428739D01*
X122961030Y-110277537D01*
X123285167Y-111062009D01*
X123347291Y-111124242D01*
X123327630Y-111126628D01*
X122976778Y-111899520D01*
X122948406Y-112747845D01*
X123246834Y-113542452D01*
X123327630Y-113663372D01*
X123346546Y-113665668D01*
X123287276Y-113724835D01*
X122961771Y-114508739D01*
X122961030Y-115357537D01*
X123285167Y-116142009D01*
X123884835Y-116742724D01*
X124118708Y-116839837D01*
X123887991Y-116935167D01*
X123287276Y-117534835D01*
X122961771Y-118318739D01*
X122961030Y-119167537D01*
X123285167Y-119952009D01*
X123884835Y-120552724D01*
X124668739Y-120878229D01*
X125517537Y-120878970D01*
X126302009Y-120554833D01*
X126774266Y-120083399D01*
X128854562Y-120083399D01*
X128906628Y-120512370D01*
X129679520Y-120863222D01*
X130527845Y-120891594D01*
X131322452Y-120593166D01*
X131443372Y-120512370D01*
X131495438Y-120083399D01*
X130175000Y-118762961D01*
X128854562Y-120083399D01*
X126774266Y-120083399D01*
X126902724Y-119955165D01*
X127228229Y-119171261D01*
X127228293Y-119097845D01*
X128028406Y-119097845D01*
X128326834Y-119892452D01*
X128407630Y-120013372D01*
X128836601Y-120065438D01*
X130157039Y-118745000D01*
X130192961Y-118745000D01*
X131513399Y-120065438D01*
X131942370Y-120013372D01*
X132293222Y-119240480D01*
X132321594Y-118392155D01*
X132023166Y-117597548D01*
X131942370Y-117476628D01*
X131513399Y-117424562D01*
X130192961Y-118745000D01*
X130157039Y-118745000D01*
X128836601Y-117424562D01*
X128407630Y-117476628D01*
X128056778Y-118249520D01*
X128028406Y-119097845D01*
X127228293Y-119097845D01*
X127228970Y-118322463D01*
X126904833Y-117537991D01*
X126773673Y-117406601D01*
X128854562Y-117406601D01*
X130175000Y-118727039D01*
X131495438Y-117406601D01*
X131443372Y-116977630D01*
X130670480Y-116626778D01*
X129822155Y-116598406D01*
X129027548Y-116896834D01*
X128906628Y-116977630D01*
X128854562Y-117406601D01*
X126773673Y-117406601D01*
X126305165Y-116937276D01*
X126071292Y-116840163D01*
X126302009Y-116744833D01*
X126902724Y-116145165D01*
X127228229Y-115361261D01*
X127228970Y-114512463D01*
X126904833Y-113727991D01*
X126842709Y-113665758D01*
X126862370Y-113663372D01*
X127213222Y-112890480D01*
X127241594Y-112042155D01*
X126943166Y-111247548D01*
X126862370Y-111126628D01*
X126843454Y-111124332D01*
X126902724Y-111065165D01*
X127228229Y-110281261D01*
X127228970Y-109432463D01*
X126904833Y-108647991D01*
X126842367Y-108585416D01*
X126902724Y-108525165D01*
X127228229Y-107741261D01*
X127228970Y-106892463D01*
X126904833Y-106107991D01*
X126305165Y-105507276D01*
X125521261Y-105181771D01*
X124672463Y-105181030D01*
X123887991Y-105505167D01*
X123735926Y-105656967D01*
X123736525Y-104970176D01*
X123364153Y-104068968D01*
X123222969Y-103927537D01*
X128041030Y-103927537D01*
X128365167Y-104712009D01*
X128964835Y-105312724D01*
X129748739Y-105638229D01*
X130597537Y-105638970D01*
X131382009Y-105314833D01*
X131444584Y-105252367D01*
X131504835Y-105312724D01*
X131738708Y-105409837D01*
X131507991Y-105505167D01*
X130907276Y-106104835D01*
X130581771Y-106888739D01*
X130581030Y-107737537D01*
X130905167Y-108522009D01*
X130967633Y-108584584D01*
X130907276Y-108644835D01*
X130581771Y-109428739D01*
X130581030Y-110277537D01*
X130905167Y-111062009D01*
X130967633Y-111124584D01*
X130907276Y-111184835D01*
X130581771Y-111968739D01*
X130581030Y-112817537D01*
X130905167Y-113602009D01*
X130967633Y-113664584D01*
X130907276Y-113724835D01*
X130581771Y-114508739D01*
X130581030Y-115357537D01*
X130905167Y-116142009D01*
X131504835Y-116742724D01*
X132288739Y-117068229D01*
X133137537Y-117068970D01*
X133922009Y-116744833D01*
X134522724Y-116145165D01*
X134616012Y-115920503D01*
X134676834Y-116082452D01*
X134757630Y-116203372D01*
X135186601Y-116255438D01*
X136507039Y-114935000D01*
X135186601Y-113614562D01*
X134757630Y-113666628D01*
X134622488Y-113964333D01*
X134524833Y-113727991D01*
X134462367Y-113665416D01*
X134522724Y-113605165D01*
X134848229Y-112821261D01*
X134848970Y-111972463D01*
X134524833Y-111187991D01*
X134462367Y-111125416D01*
X134522724Y-111065165D01*
X134619837Y-110831292D01*
X134715167Y-111062009D01*
X135314835Y-111662724D01*
X136098739Y-111988229D01*
X136947537Y-111988970D01*
X137684877Y-111684307D01*
X137566771Y-111968739D01*
X137566030Y-112817537D01*
X137691595Y-113121429D01*
X137020480Y-112816778D01*
X136172155Y-112788406D01*
X135377548Y-113086834D01*
X135256628Y-113167630D01*
X135204562Y-113596601D01*
X136525000Y-114917039D01*
X136539142Y-114902897D01*
X136557103Y-114920858D01*
X136542961Y-114935000D01*
X136557103Y-114949142D01*
X136539142Y-114967103D01*
X136525000Y-114952961D01*
X135204562Y-116273399D01*
X135256628Y-116702370D01*
X136029520Y-117053222D01*
X136877845Y-117081594D01*
X137672452Y-116783166D01*
X137678811Y-116778917D01*
X137566771Y-117048739D01*
X137566030Y-117897537D01*
X137890167Y-118682009D01*
X138489835Y-119282724D01*
X139273739Y-119608229D01*
X140122537Y-119608970D01*
X140804501Y-119327188D01*
X140804475Y-119357415D01*
X141176847Y-120258623D01*
X141865751Y-120948730D01*
X142766307Y-121322674D01*
X143741415Y-121323525D01*
X144642623Y-120951153D01*
X145332730Y-120262249D01*
X145706674Y-119361693D01*
X145707525Y-118386585D01*
X145335153Y-117485377D01*
X144646249Y-116795270D01*
X143745693Y-116421326D01*
X142770585Y-116420475D01*
X141869377Y-116792847D01*
X141768364Y-116893684D01*
X141509833Y-116267991D01*
X140910165Y-115667276D01*
X140126261Y-115341771D01*
X139277463Y-115341030D01*
X138546775Y-115642944D01*
X138643222Y-115430480D01*
X138671594Y-114582155D01*
X138536346Y-114222037D01*
X139273739Y-114528229D01*
X140122537Y-114528970D01*
X140907009Y-114204833D01*
X141507724Y-113605165D01*
X141833229Y-112821261D01*
X141833293Y-112747845D01*
X145808406Y-112747845D01*
X146106834Y-113542452D01*
X146187630Y-113663372D01*
X146206546Y-113665668D01*
X146147276Y-113724835D01*
X145821771Y-114508739D01*
X145821030Y-115357537D01*
X146145167Y-116142009D01*
X146744835Y-116742724D01*
X146978708Y-116839837D01*
X146747991Y-116935167D01*
X146147276Y-117534835D01*
X145821771Y-118318739D01*
X145821030Y-119167537D01*
X146145167Y-119952009D01*
X146744835Y-120552724D01*
X147528739Y-120878229D01*
X148377537Y-120878970D01*
X149162009Y-120554833D01*
X149634266Y-120083399D01*
X151714562Y-120083399D01*
X151766628Y-120512370D01*
X152539520Y-120863222D01*
X153387845Y-120891594D01*
X154182452Y-120593166D01*
X154303372Y-120512370D01*
X154355438Y-120083399D01*
X153035000Y-118762961D01*
X151714562Y-120083399D01*
X149634266Y-120083399D01*
X149762724Y-119955165D01*
X150088229Y-119171261D01*
X150088293Y-119097845D01*
X150888406Y-119097845D01*
X151186834Y-119892452D01*
X151267630Y-120013372D01*
X151696601Y-120065438D01*
X153017039Y-118745000D01*
X153052961Y-118745000D01*
X154373399Y-120065438D01*
X154802370Y-120013372D01*
X155045016Y-119478845D01*
X163715406Y-119478845D01*
X164013834Y-120273452D01*
X164094630Y-120394372D01*
X164113546Y-120396668D01*
X164054276Y-120455835D01*
X163728771Y-121239739D01*
X163728030Y-122088537D01*
X164052167Y-122873009D01*
X164651835Y-123473724D01*
X165435739Y-123799229D01*
X166284537Y-123799970D01*
X167069009Y-123475833D01*
X167669724Y-122876165D01*
X167995229Y-122092261D01*
X167995970Y-121243463D01*
X167671833Y-120458991D01*
X167609709Y-120396758D01*
X167629370Y-120394372D01*
X167980222Y-119621480D01*
X167984653Y-119488973D01*
X170255458Y-119488973D01*
X170562630Y-120307281D01*
X170624480Y-120399848D01*
X170604475Y-120419818D01*
X170269282Y-121227052D01*
X170268519Y-122101113D01*
X170602303Y-122908931D01*
X171219818Y-123527525D01*
X172027052Y-123862718D01*
X172901113Y-123863481D01*
X173708931Y-123529697D01*
X174327525Y-122912182D01*
X174662718Y-122104948D01*
X174663481Y-121230887D01*
X174329697Y-120423069D01*
X174302414Y-120395738D01*
X174647178Y-119636593D01*
X174676542Y-118763027D01*
X174369370Y-117944719D01*
X174285751Y-117819572D01*
X173850181Y-117759779D01*
X172483961Y-119126000D01*
X172498103Y-119140142D01*
X172480142Y-119158103D01*
X172466000Y-119143961D01*
X172451858Y-119158103D01*
X172433897Y-119140142D01*
X172448039Y-119126000D01*
X171081819Y-117759779D01*
X170646249Y-117819572D01*
X170284822Y-118615407D01*
X170255458Y-119488973D01*
X167984653Y-119488973D01*
X168008594Y-118773155D01*
X167710166Y-117978548D01*
X167629370Y-117857628D01*
X167200399Y-117805562D01*
X165879961Y-119126000D01*
X165894103Y-119140142D01*
X165876142Y-119158103D01*
X165862000Y-119143961D01*
X165847858Y-119158103D01*
X165829897Y-119140142D01*
X165844039Y-119126000D01*
X164523601Y-117805562D01*
X164094630Y-117857628D01*
X163743778Y-118630520D01*
X163715406Y-119478845D01*
X155045016Y-119478845D01*
X155153222Y-119240480D01*
X155181594Y-118392155D01*
X154954544Y-117787601D01*
X164541562Y-117787601D01*
X165862000Y-119108039D01*
X167182438Y-117787601D01*
X167176882Y-117741819D01*
X171099779Y-117741819D01*
X172466000Y-119108039D01*
X173832221Y-117741819D01*
X173772428Y-117306249D01*
X172976593Y-116944822D01*
X172103027Y-116915458D01*
X171284719Y-117222630D01*
X171159572Y-117306249D01*
X171099779Y-117741819D01*
X167176882Y-117741819D01*
X167130372Y-117358630D01*
X166357480Y-117007778D01*
X165509155Y-116979406D01*
X164714548Y-117277834D01*
X164593628Y-117358630D01*
X164541562Y-117787601D01*
X154954544Y-117787601D01*
X154883166Y-117597548D01*
X154802370Y-117476628D01*
X154373399Y-117424562D01*
X153052961Y-118745000D01*
X153017039Y-118745000D01*
X151696601Y-117424562D01*
X151267630Y-117476628D01*
X150916778Y-118249520D01*
X150888406Y-119097845D01*
X150088293Y-119097845D01*
X150088970Y-118322463D01*
X149764833Y-117537991D01*
X149633673Y-117406601D01*
X151714562Y-117406601D01*
X153035000Y-118727039D01*
X154355438Y-117406601D01*
X154303372Y-116977630D01*
X153530480Y-116626778D01*
X152682155Y-116598406D01*
X151887548Y-116896834D01*
X151766628Y-116977630D01*
X151714562Y-117406601D01*
X149633673Y-117406601D01*
X149165165Y-116937276D01*
X148931292Y-116840163D01*
X149162009Y-116744833D01*
X149762724Y-116145165D01*
X150088229Y-115361261D01*
X150088970Y-114512463D01*
X149764833Y-113727991D01*
X149702709Y-113665758D01*
X149722370Y-113663372D01*
X150073222Y-112890480D01*
X150101594Y-112042155D01*
X149803166Y-111247548D01*
X149722370Y-111126628D01*
X149703454Y-111124332D01*
X149762724Y-111065165D01*
X150088229Y-110281261D01*
X150088970Y-109432463D01*
X149764833Y-108647991D01*
X149702367Y-108585416D01*
X149762724Y-108525165D01*
X150088229Y-107741261D01*
X150088232Y-107737537D01*
X153441030Y-107737537D01*
X153765167Y-108522009D01*
X153827633Y-108584584D01*
X153767276Y-108644835D01*
X153441771Y-109428739D01*
X153441030Y-110277537D01*
X153765167Y-111062009D01*
X153827633Y-111124584D01*
X153767276Y-111184835D01*
X153441771Y-111968739D01*
X153441030Y-112817537D01*
X153765167Y-113602009D01*
X153827633Y-113664584D01*
X153767276Y-113724835D01*
X153441771Y-114508739D01*
X153441030Y-115357537D01*
X153765167Y-116142009D01*
X154364835Y-116742724D01*
X155148739Y-117068229D01*
X155997537Y-117068970D01*
X156782009Y-116744833D01*
X157254266Y-116273399D01*
X158064562Y-116273399D01*
X158116628Y-116702370D01*
X158889520Y-117053222D01*
X159737845Y-117081594D01*
X160532452Y-116783166D01*
X160653372Y-116702370D01*
X160705438Y-116273399D01*
X159385000Y-114952961D01*
X158064562Y-116273399D01*
X157254266Y-116273399D01*
X157382724Y-116145165D01*
X157476012Y-115920503D01*
X157536834Y-116082452D01*
X157617630Y-116203372D01*
X158046601Y-116255438D01*
X159367039Y-114935000D01*
X158046601Y-113614562D01*
X157617630Y-113666628D01*
X157482488Y-113964333D01*
X157384833Y-113727991D01*
X157322367Y-113665416D01*
X157382724Y-113605165D01*
X157708229Y-112821261D01*
X157708970Y-111972463D01*
X157384833Y-111187991D01*
X157322367Y-111125416D01*
X157382724Y-111065165D01*
X157479837Y-110831292D01*
X157575167Y-111062009D01*
X158174835Y-111662724D01*
X158958739Y-111988229D01*
X159807537Y-111988970D01*
X160129893Y-111855775D01*
X160109326Y-111905307D01*
X160108475Y-112880415D01*
X160128748Y-112929478D01*
X159880480Y-112816778D01*
X159032155Y-112788406D01*
X158237548Y-113086834D01*
X158116628Y-113167630D01*
X158064562Y-113596601D01*
X159385000Y-114917039D01*
X159399142Y-114902897D01*
X159417103Y-114920858D01*
X159402961Y-114935000D01*
X160723399Y-116255438D01*
X161152370Y-116203372D01*
X161234590Y-116022248D01*
X173710653Y-116022248D01*
X173801348Y-116484209D01*
X174688948Y-116887942D01*
X175663486Y-116921273D01*
X176576597Y-116579127D01*
X176718652Y-116484209D01*
X176809347Y-116022248D01*
X175260000Y-114472901D01*
X173710653Y-116022248D01*
X161234590Y-116022248D01*
X161503222Y-115430480D01*
X161522353Y-114858426D01*
X172793667Y-114858426D01*
X173135813Y-115771537D01*
X173230731Y-115913592D01*
X173692692Y-116004287D01*
X175242039Y-114454940D01*
X173692692Y-112905593D01*
X173230731Y-112996288D01*
X172826998Y-113883888D01*
X172793667Y-114858426D01*
X161522353Y-114858426D01*
X161530280Y-114621435D01*
X162070307Y-114845674D01*
X163045415Y-114846525D01*
X163946623Y-114474153D01*
X164636730Y-113785249D01*
X165010674Y-112884693D01*
X165011525Y-111909585D01*
X164639153Y-111008377D01*
X163950249Y-110318270D01*
X163049693Y-109944326D01*
X162074585Y-109943475D01*
X161518323Y-110173318D01*
X161518970Y-109432463D01*
X161194833Y-108647991D01*
X160595165Y-108047276D01*
X159811261Y-107721771D01*
X158962463Y-107721030D01*
X158177991Y-108045167D01*
X157577276Y-108644835D01*
X157480163Y-108878708D01*
X157384833Y-108647991D01*
X157322367Y-108585416D01*
X157382724Y-108525165D01*
X157708229Y-107741261D01*
X157708970Y-106892463D01*
X157384833Y-106107991D01*
X156785165Y-105507276D01*
X156001261Y-105181771D01*
X155152463Y-105181030D01*
X154367991Y-105505167D01*
X153767276Y-106104835D01*
X153441771Y-106888739D01*
X153441030Y-107737537D01*
X150088232Y-107737537D01*
X150088970Y-106892463D01*
X149764833Y-106107991D01*
X149165165Y-105507276D01*
X148381261Y-105181771D01*
X147532463Y-105181030D01*
X146747991Y-105505167D01*
X146147276Y-106104835D01*
X145821771Y-106888739D01*
X145821030Y-107737537D01*
X146145167Y-108522009D01*
X146207633Y-108584584D01*
X146147276Y-108644835D01*
X145821771Y-109428739D01*
X145821030Y-110277537D01*
X146145167Y-111062009D01*
X146207291Y-111124242D01*
X146187630Y-111126628D01*
X145836778Y-111899520D01*
X145808406Y-112747845D01*
X141833293Y-112747845D01*
X141833970Y-111972463D01*
X141509833Y-111187991D01*
X140910165Y-110587276D01*
X140126261Y-110261771D01*
X139277463Y-110261030D01*
X138540123Y-110565693D01*
X138658229Y-110281261D01*
X138658970Y-109432463D01*
X138561851Y-109197415D01*
X140804475Y-109197415D01*
X141176847Y-110098623D01*
X141865751Y-110788730D01*
X142766307Y-111162674D01*
X143741415Y-111163525D01*
X144642623Y-110791153D01*
X145332730Y-110102249D01*
X145706674Y-109201693D01*
X145707525Y-108226585D01*
X145335153Y-107325377D01*
X144646249Y-106635270D01*
X143745693Y-106261326D01*
X142770585Y-106260475D01*
X141869377Y-106632847D01*
X141179270Y-107321751D01*
X140805326Y-108222307D01*
X140804475Y-109197415D01*
X138561851Y-109197415D01*
X138334833Y-108647991D01*
X137735165Y-108047276D01*
X136951261Y-107721771D01*
X136102463Y-107721030D01*
X135317991Y-108045167D01*
X134717276Y-108644835D01*
X134620163Y-108878708D01*
X134524833Y-108647991D01*
X134462367Y-108585416D01*
X134522724Y-108525165D01*
X134848229Y-107741261D01*
X134848970Y-106892463D01*
X134524833Y-106107991D01*
X133925165Y-105507276D01*
X133691292Y-105410163D01*
X133922009Y-105314833D01*
X134522724Y-104715165D01*
X134848229Y-103931261D01*
X134848970Y-103082463D01*
X134524833Y-102297991D01*
X133925165Y-101697276D01*
X133141261Y-101371771D01*
X132600181Y-101371299D01*
X132886730Y-101085249D01*
X133260674Y-100184693D01*
X133260677Y-100180415D01*
X138518475Y-100180415D01*
X138890847Y-101081623D01*
X139579751Y-101771730D01*
X140480307Y-102145674D01*
X141455415Y-102146525D01*
X141860986Y-101978946D01*
X141694326Y-102380307D01*
X141693475Y-103355415D01*
X142065847Y-104256623D01*
X142754751Y-104946730D01*
X143655307Y-105320674D01*
X144630415Y-105321525D01*
X145531623Y-104949153D01*
X146221730Y-104260249D01*
X146595674Y-103359693D01*
X146595677Y-103355415D01*
X151853475Y-103355415D01*
X152225847Y-104256623D01*
X152914751Y-104946730D01*
X153815307Y-105320674D01*
X154790415Y-105321525D01*
X155691623Y-104949153D01*
X156381730Y-104260249D01*
X156755674Y-103359693D01*
X156756231Y-102720415D01*
X160108475Y-102720415D01*
X160480847Y-103621623D01*
X161169751Y-104311730D01*
X162070307Y-104685674D01*
X163045415Y-104686525D01*
X163946623Y-104314153D01*
X164636730Y-103625249D01*
X165010674Y-102724693D01*
X165010793Y-102587845D01*
X167271406Y-102587845D01*
X167569834Y-103382452D01*
X167650630Y-103503372D01*
X167669546Y-103505668D01*
X167610276Y-103564835D01*
X167284771Y-104348739D01*
X167284030Y-105197537D01*
X167608167Y-105982009D01*
X167670633Y-106044584D01*
X167610276Y-106104835D01*
X167284771Y-106888739D01*
X167284030Y-107737537D01*
X167608167Y-108522009D01*
X167670633Y-108584584D01*
X167610276Y-108644835D01*
X167284771Y-109428739D01*
X167284030Y-110277537D01*
X167608167Y-111062009D01*
X168207835Y-111662724D01*
X168991739Y-111988229D01*
X169840537Y-111988970D01*
X169982235Y-111930422D01*
X170148167Y-112332009D01*
X170747835Y-112932724D01*
X171531739Y-113258229D01*
X172380537Y-113258970D01*
X173165009Y-112934833D01*
X173212292Y-112887632D01*
X173710653Y-112887632D01*
X175260000Y-114436979D01*
X175274142Y-114422837D01*
X175292103Y-114440798D01*
X175277961Y-114454940D01*
X176827308Y-116004287D01*
X177289269Y-115913592D01*
X177512010Y-115423899D01*
X177585806Y-115457559D01*
X178812770Y-115500807D01*
X179962888Y-115071225D01*
X180147212Y-114948064D01*
X180315163Y-114420123D01*
X178308000Y-112412961D01*
X178293858Y-112427103D01*
X178275897Y-112409142D01*
X178290039Y-112395000D01*
X176282877Y-110387837D01*
X175754936Y-110555788D01*
X175245441Y-111672806D01*
X175233855Y-112001513D01*
X174856514Y-111988607D01*
X173943403Y-112330753D01*
X173801348Y-112425671D01*
X173710653Y-112887632D01*
X173212292Y-112887632D01*
X173765724Y-112335165D01*
X174091229Y-111551261D01*
X174091970Y-110702463D01*
X173767833Y-109917991D01*
X173705367Y-109855416D01*
X173765724Y-109795165D01*
X174091229Y-109011261D01*
X174091970Y-108162463D01*
X173767833Y-107377991D01*
X173705367Y-107315416D01*
X173765724Y-107255165D01*
X174091229Y-106471261D01*
X174091970Y-105622463D01*
X173767833Y-104837991D01*
X173705367Y-104775416D01*
X173765724Y-104715165D01*
X174091229Y-103931261D01*
X174091970Y-103082463D01*
X174053816Y-102990123D01*
X176300837Y-102990123D01*
X176468788Y-103518064D01*
X177585806Y-104027559D01*
X178812770Y-104070807D01*
X179962888Y-103641225D01*
X180147212Y-103518064D01*
X180315163Y-102990123D01*
X178308000Y-100982961D01*
X176300837Y-102990123D01*
X174053816Y-102990123D01*
X173767833Y-102297991D01*
X173168165Y-101697276D01*
X172384261Y-101371771D01*
X171535463Y-101371030D01*
X171394506Y-101429272D01*
X171266166Y-101087548D01*
X171185370Y-100966628D01*
X170756399Y-100914562D01*
X169435961Y-102235000D01*
X169450103Y-102249142D01*
X169432142Y-102267103D01*
X169418000Y-102252961D01*
X169403858Y-102267103D01*
X169385897Y-102249142D01*
X169400039Y-102235000D01*
X168079601Y-100914562D01*
X167650630Y-100966628D01*
X167299778Y-101739520D01*
X167271406Y-102587845D01*
X165010793Y-102587845D01*
X165011525Y-101749585D01*
X164659079Y-100896601D01*
X168097562Y-100896601D01*
X169418000Y-102217039D01*
X170738438Y-100896601D01*
X170686372Y-100467630D01*
X169913480Y-100116778D01*
X169065155Y-100088406D01*
X168270548Y-100386834D01*
X168149628Y-100467630D01*
X168097562Y-100896601D01*
X164659079Y-100896601D01*
X164639153Y-100848377D01*
X163950249Y-100158270D01*
X163049693Y-99784326D01*
X162074585Y-99783475D01*
X161173377Y-100155847D01*
X160483270Y-100844751D01*
X160109326Y-101745307D01*
X160108475Y-102720415D01*
X156756231Y-102720415D01*
X156756525Y-102384585D01*
X156384153Y-101483377D01*
X155695249Y-100793270D01*
X154794693Y-100419326D01*
X153819585Y-100418475D01*
X152918377Y-100790847D01*
X152228270Y-101479751D01*
X151854326Y-102380307D01*
X151853475Y-103355415D01*
X146595677Y-103355415D01*
X146596525Y-102384585D01*
X146224153Y-101483377D01*
X145535249Y-100793270D01*
X144634693Y-100419326D01*
X143659585Y-100418475D01*
X143254014Y-100586054D01*
X143420674Y-100184693D01*
X143421286Y-99482537D01*
X145821030Y-99482537D01*
X146145167Y-100267009D01*
X146744835Y-100867724D01*
X147528739Y-101193229D01*
X148377537Y-101193970D01*
X149162009Y-100869833D01*
X149224584Y-100807367D01*
X149284835Y-100867724D01*
X150068739Y-101193229D01*
X150917537Y-101193970D01*
X151702009Y-100869833D01*
X152302724Y-100270165D01*
X152628229Y-99486261D01*
X152628384Y-99308546D01*
X172793667Y-99308546D01*
X173135813Y-100221657D01*
X173230731Y-100363712D01*
X173692692Y-100454407D01*
X175242039Y-98905060D01*
X173692692Y-97355713D01*
X173230731Y-97446408D01*
X172826998Y-98334008D01*
X172793667Y-99308546D01*
X152628384Y-99308546D01*
X152628970Y-98637463D01*
X152304833Y-97852991D01*
X151790493Y-97337752D01*
X173710653Y-97337752D01*
X175260000Y-98887099D01*
X176809347Y-97337752D01*
X176718652Y-96875791D01*
X175831052Y-96472058D01*
X174856514Y-96438727D01*
X173943403Y-96780873D01*
X173801348Y-96875791D01*
X173710653Y-97337752D01*
X151790493Y-97337752D01*
X151705165Y-97252276D01*
X150921261Y-96926771D01*
X150072463Y-96926030D01*
X149287991Y-97250167D01*
X149225416Y-97312633D01*
X149165165Y-97252276D01*
X148381261Y-96926771D01*
X147532463Y-96926030D01*
X146747991Y-97250167D01*
X146147276Y-97849835D01*
X145821771Y-98633739D01*
X145821030Y-99482537D01*
X143421286Y-99482537D01*
X143421525Y-99209585D01*
X143049153Y-98308377D01*
X142360249Y-97618270D01*
X141459693Y-97244326D01*
X140484585Y-97243475D01*
X139583377Y-97615847D01*
X138893270Y-98304751D01*
X138519326Y-99205307D01*
X138518475Y-100180415D01*
X133260677Y-100180415D01*
X133261525Y-99209585D01*
X132889153Y-98308377D01*
X132200249Y-97618270D01*
X131299693Y-97244326D01*
X130324585Y-97243475D01*
X129423377Y-97615847D01*
X128733270Y-98304751D01*
X128359326Y-99205307D01*
X128358475Y-100180415D01*
X128730847Y-101081623D01*
X129233717Y-101585371D01*
X128967991Y-101695167D01*
X128367276Y-102294835D01*
X128041771Y-103078739D01*
X128041030Y-103927537D01*
X123222969Y-103927537D01*
X122675249Y-103378861D01*
X121774693Y-103004917D01*
X120799585Y-103004066D01*
X119898377Y-103376438D01*
X119208270Y-104065342D01*
X118899854Y-104808089D01*
X118649833Y-104202991D01*
X118050165Y-103602276D01*
X117266261Y-103276771D01*
X116417463Y-103276030D01*
X115632991Y-103600167D01*
X115032276Y-104199835D01*
X114706771Y-104983739D01*
X114706030Y-105832537D01*
X113893232Y-105832537D01*
X113893970Y-104987463D01*
X113569833Y-104202991D01*
X112970165Y-103602276D01*
X112186261Y-103276771D01*
X111949146Y-103276564D01*
X112511623Y-103044153D01*
X113009185Y-102547459D01*
X113031628Y-102732370D01*
X113804520Y-103083222D01*
X114652845Y-103111594D01*
X115447452Y-102813166D01*
X115568372Y-102732370D01*
X115620438Y-102303399D01*
X114300000Y-100982961D01*
X114285858Y-100997103D01*
X114267897Y-100979142D01*
X114282039Y-100965000D01*
X114317961Y-100965000D01*
X115638399Y-102285438D01*
X116067370Y-102233372D01*
X116418222Y-101460480D01*
X116446594Y-100612155D01*
X116148166Y-99817548D01*
X116067370Y-99696628D01*
X115638399Y-99644562D01*
X114317961Y-100965000D01*
X114282039Y-100965000D01*
X114267897Y-100950858D01*
X114285858Y-100932897D01*
X114300000Y-100947039D01*
X115620438Y-99626601D01*
X115568372Y-99197630D01*
X114795480Y-98846778D01*
X113947155Y-98818406D01*
X113152548Y-99116834D01*
X113031628Y-99197630D01*
X113009128Y-99383011D01*
X112515249Y-98888270D01*
X111614693Y-98514326D01*
X110639585Y-98513475D01*
X109738377Y-98885847D01*
X109735062Y-98889157D01*
X110019740Y-98203575D01*
X110020459Y-97380038D01*
X109705969Y-96618914D01*
X109607565Y-96520338D01*
X109703922Y-96424149D01*
X109752343Y-96307537D01*
X112166030Y-96307537D01*
X112490167Y-97092009D01*
X113089835Y-97692724D01*
X113873739Y-98018229D01*
X114722537Y-98018970D01*
X115507009Y-97694833D01*
X116107724Y-97095165D01*
X116200039Y-96872845D01*
X120408406Y-96872845D01*
X120706834Y-97667452D01*
X120787630Y-97788372D01*
X120806546Y-97790668D01*
X120747276Y-97849835D01*
X120421771Y-98633739D01*
X120421030Y-99482537D01*
X120745167Y-100267009D01*
X121344835Y-100867724D01*
X122128739Y-101193229D01*
X122977537Y-101193970D01*
X123762009Y-100869833D01*
X124362724Y-100270165D01*
X124688229Y-99486261D01*
X124688970Y-98637463D01*
X124364833Y-97852991D01*
X124302709Y-97790758D01*
X124322370Y-97788372D01*
X124673222Y-97015480D01*
X124701594Y-96167155D01*
X124403166Y-95372548D01*
X124322370Y-95251628D01*
X123893399Y-95199562D01*
X122572961Y-96520000D01*
X122587103Y-96534142D01*
X122569142Y-96552103D01*
X122555000Y-96537961D01*
X122540858Y-96552103D01*
X122522897Y-96534142D01*
X122537039Y-96520000D01*
X121216601Y-95199562D01*
X120787630Y-95251628D01*
X120436778Y-96024520D01*
X120408406Y-96872845D01*
X116200039Y-96872845D01*
X116433229Y-96311261D01*
X116433970Y-95462463D01*
X116317921Y-95181601D01*
X121234562Y-95181601D01*
X122555000Y-96502039D01*
X123875438Y-95181601D01*
X123823372Y-94752630D01*
X123391095Y-94556399D01*
X156159562Y-94556399D01*
X156211628Y-94985370D01*
X156984520Y-95336222D01*
X157832845Y-95364594D01*
X158627452Y-95066166D01*
X158748372Y-94985370D01*
X158794881Y-94602181D01*
X167543779Y-94602181D01*
X167603572Y-95037751D01*
X168399407Y-95399178D01*
X169272973Y-95428542D01*
X170091281Y-95121370D01*
X170216428Y-95037751D01*
X170276221Y-94602181D01*
X168910000Y-93235961D01*
X167543779Y-94602181D01*
X158794881Y-94602181D01*
X158800438Y-94556399D01*
X157480000Y-93235961D01*
X156159562Y-94556399D01*
X123391095Y-94556399D01*
X123050480Y-94401778D01*
X122202155Y-94373406D01*
X121407548Y-94671834D01*
X121286628Y-94752630D01*
X121234562Y-95181601D01*
X116317921Y-95181601D01*
X116109833Y-94677991D01*
X115510165Y-94077276D01*
X114726261Y-93751771D01*
X113877463Y-93751030D01*
X113092991Y-94075167D01*
X112492276Y-94674835D01*
X112166771Y-95458739D01*
X112166030Y-96307537D01*
X109752343Y-96307537D01*
X110019740Y-95663575D01*
X110020459Y-94840038D01*
X109705969Y-94078914D01*
X109198786Y-93570845D01*
X155333406Y-93570845D01*
X155631834Y-94365452D01*
X155712630Y-94486372D01*
X156141601Y-94538438D01*
X157462039Y-93218000D01*
X157447897Y-93203858D01*
X157465858Y-93185897D01*
X157480000Y-93200039D01*
X157494142Y-93185897D01*
X157512103Y-93203858D01*
X157497961Y-93218000D01*
X158818399Y-94538438D01*
X159247370Y-94486372D01*
X159598222Y-93713480D01*
X159602653Y-93580973D01*
X166699458Y-93580973D01*
X167006630Y-94399281D01*
X167090249Y-94524428D01*
X167525819Y-94584221D01*
X168892039Y-93218000D01*
X168877897Y-93203858D01*
X168895858Y-93185897D01*
X168910000Y-93200039D01*
X168924142Y-93185897D01*
X168942103Y-93203858D01*
X168927961Y-93218000D01*
X170294181Y-94584221D01*
X170729751Y-94524428D01*
X171091178Y-93728593D01*
X171120542Y-92855027D01*
X170813370Y-92036719D01*
X170751520Y-91944152D01*
X170771525Y-91924182D01*
X171106718Y-91116948D01*
X171107481Y-90242887D01*
X170773697Y-89435069D01*
X170156182Y-88816475D01*
X169348948Y-88481282D01*
X168474887Y-88480519D01*
X167667069Y-88814303D01*
X167048475Y-89431818D01*
X166713282Y-90239052D01*
X166712519Y-91113113D01*
X167046303Y-91920931D01*
X167073586Y-91948262D01*
X166728822Y-92707407D01*
X166699458Y-93580973D01*
X159602653Y-93580973D01*
X159626594Y-92865155D01*
X159328166Y-92070548D01*
X159247370Y-91949628D01*
X159228454Y-91947332D01*
X159287724Y-91888165D01*
X159613229Y-91104261D01*
X159613970Y-90255463D01*
X159289833Y-89470991D01*
X158690165Y-88870276D01*
X157906261Y-88544771D01*
X157057463Y-88544030D01*
X156272991Y-88868167D01*
X155672276Y-89467835D01*
X155346771Y-90251739D01*
X155346030Y-91100537D01*
X155670167Y-91885009D01*
X155732291Y-91947242D01*
X155712630Y-91949628D01*
X155361778Y-92722520D01*
X155333406Y-93570845D01*
X109198786Y-93570845D01*
X109124149Y-93496078D01*
X108363575Y-93180260D01*
X107540038Y-93179541D01*
X106778914Y-93494031D01*
X106196078Y-94075851D01*
X105880260Y-94836425D01*
X105879541Y-95659962D01*
X106194031Y-96421086D01*
X106292435Y-96519662D01*
X106196078Y-96615851D01*
X105880260Y-97376425D01*
X105879541Y-98199962D01*
X106194031Y-98961086D01*
X106292435Y-99059662D01*
X106196078Y-99155851D01*
X106176531Y-99202926D01*
X105895969Y-98523914D01*
X105314149Y-97941078D01*
X104553575Y-97625260D01*
X103730038Y-97624541D01*
X103670224Y-97649256D01*
X103670459Y-97380038D01*
X103355969Y-96618914D01*
X103257565Y-96520338D01*
X103353922Y-96424149D01*
X103669740Y-95663575D01*
X103670459Y-94840038D01*
X103355969Y-94078914D01*
X103257565Y-93980338D01*
X103353922Y-93884149D01*
X103669740Y-93123575D01*
X103670459Y-92300038D01*
X103355969Y-91538914D01*
X103107904Y-91290415D01*
X108673475Y-91290415D01*
X109045847Y-92191623D01*
X109734751Y-92881730D01*
X110635307Y-93255674D01*
X111610415Y-93256525D01*
X112511623Y-92884153D01*
X113201730Y-92195249D01*
X113575674Y-91294693D01*
X113575721Y-91240113D01*
X130517519Y-91240113D01*
X130851303Y-92047931D01*
X131468818Y-92666525D01*
X132276052Y-93001718D01*
X133150113Y-93002481D01*
X133957931Y-92668697D01*
X133985262Y-92641414D01*
X134744407Y-92986178D01*
X135617973Y-93015542D01*
X136436281Y-92708370D01*
X136528848Y-92646520D01*
X136548818Y-92666525D01*
X137356052Y-93001718D01*
X138230113Y-93002481D01*
X139037931Y-92668697D01*
X139656525Y-92051182D01*
X139991718Y-91243948D01*
X139992481Y-90369887D01*
X139658697Y-89562069D01*
X139041182Y-88943475D01*
X138233948Y-88608282D01*
X137359887Y-88607519D01*
X136552069Y-88941303D01*
X136524738Y-88968586D01*
X135765593Y-88623822D01*
X134892027Y-88594458D01*
X134073719Y-88901630D01*
X133981152Y-88963480D01*
X133961182Y-88943475D01*
X133153948Y-88608282D01*
X132279887Y-88607519D01*
X131472069Y-88941303D01*
X130853475Y-89558818D01*
X130518282Y-90366052D01*
X130517519Y-91240113D01*
X113575721Y-91240113D01*
X113576525Y-90319585D01*
X113204153Y-89418377D01*
X112515249Y-88728270D01*
X111614693Y-88354326D01*
X110639585Y-88353475D01*
X109738377Y-88725847D01*
X109048270Y-89414751D01*
X108674326Y-90315307D01*
X108673475Y-91290415D01*
X103107904Y-91290415D01*
X102774149Y-90956078D01*
X102013575Y-90640260D01*
X101190038Y-90639541D01*
X100428914Y-90954031D01*
X99846078Y-91535851D01*
X99530260Y-92296425D01*
X99529541Y-93119962D01*
X99844031Y-93881086D01*
X99942435Y-93979662D01*
X99846078Y-94075851D01*
X99530260Y-94836425D01*
X99529541Y-95659962D01*
X99844031Y-96421086D01*
X99942435Y-96519662D01*
X99846078Y-96615851D01*
X99530260Y-97376425D01*
X99529541Y-98199962D01*
X99844031Y-98961086D01*
X100425851Y-99543922D01*
X101186425Y-99859740D01*
X102009962Y-99860459D01*
X102069776Y-99835744D01*
X102069541Y-100104962D01*
X102384031Y-100866086D01*
X102482435Y-100964662D01*
X102386078Y-101060851D01*
X102070260Y-101821425D01*
X102069541Y-102644962D01*
X102384031Y-103406086D01*
X102482435Y-103504662D01*
X102386078Y-103600851D01*
X102123365Y-104233534D01*
X101774153Y-103388377D01*
X101085249Y-102698270D01*
X100184693Y-102324326D01*
X99244911Y-102323506D01*
X99605674Y-101454693D01*
X99606525Y-100479585D01*
X99234153Y-99578377D01*
X98545249Y-98888270D01*
X97644693Y-98514326D01*
X96669585Y-98513475D01*
X95768377Y-98885847D01*
X95249700Y-99403620D01*
X94735249Y-98888270D01*
X93834693Y-98514326D01*
X92859585Y-98513475D01*
X91958377Y-98885847D01*
X91439700Y-99403620D01*
X90925249Y-98888270D01*
X90024693Y-98514326D01*
X89049585Y-98513475D01*
X88148377Y-98885847D01*
X87458270Y-99574751D01*
X87400668Y-99713473D01*
X86899149Y-99211078D01*
X86138575Y-98895260D01*
X85315038Y-98894541D01*
X84553914Y-99209031D01*
X84049570Y-99712496D01*
X83994153Y-99578377D01*
X83305249Y-98888270D01*
X82404693Y-98514326D01*
X81429585Y-98513475D01*
X80528377Y-98885847D01*
X80525062Y-98889157D01*
X80809740Y-98203575D01*
X80810459Y-97380038D01*
X80495969Y-96618914D01*
X80397565Y-96520338D01*
X80493922Y-96424149D01*
X80809740Y-95663575D01*
X80810459Y-94840038D01*
X80495969Y-94078914D01*
X80397565Y-93980338D01*
X80493922Y-93884149D01*
X80809740Y-93123575D01*
X80809848Y-93000113D01*
X81425307Y-93255674D01*
X82400415Y-93256525D01*
X83301623Y-92884153D01*
X83991730Y-92195249D01*
X84365674Y-91294693D01*
X84365677Y-91290415D01*
X87083475Y-91290415D01*
X87455847Y-92191623D01*
X88144751Y-92881730D01*
X89045307Y-93255674D01*
X90020415Y-93256525D01*
X90921623Y-92884153D01*
X91440300Y-92366380D01*
X91954751Y-92881730D01*
X92855307Y-93255674D01*
X93830415Y-93256525D01*
X94731623Y-92884153D01*
X95250300Y-92366380D01*
X95764751Y-92881730D01*
X96665307Y-93255674D01*
X97640415Y-93256525D01*
X98541623Y-92884153D01*
X99231730Y-92195249D01*
X99605674Y-91294693D01*
X99606525Y-90319585D01*
X99234153Y-89418377D01*
X98545249Y-88728270D01*
X97644693Y-88354326D01*
X96669585Y-88353475D01*
X95768377Y-88725847D01*
X95249700Y-89243620D01*
X94735249Y-88728270D01*
X93834693Y-88354326D01*
X92859585Y-88353475D01*
X91958377Y-88725847D01*
X91439700Y-89243620D01*
X90925249Y-88728270D01*
X90024693Y-88354326D01*
X89049585Y-88353475D01*
X88148377Y-88725847D01*
X87458270Y-89414751D01*
X87084326Y-90315307D01*
X87083475Y-91290415D01*
X84365677Y-91290415D01*
X84366525Y-90319585D01*
X83994153Y-89418377D01*
X83305249Y-88728270D01*
X82404693Y-88354326D01*
X81429585Y-88353475D01*
X80528377Y-88725847D01*
X79838270Y-89414751D01*
X79464326Y-90315307D01*
X79463930Y-90769131D01*
X79153575Y-90640260D01*
X78330038Y-90639541D01*
X77568914Y-90954031D01*
X76986078Y-91535851D01*
X76670260Y-92296425D01*
X76669541Y-93119962D01*
X76984031Y-93881086D01*
X77082435Y-93979662D01*
X76986078Y-94075851D01*
X76682733Y-94806387D01*
X76320249Y-94443270D01*
X75419693Y-94069326D01*
X74444585Y-94068475D01*
X73543377Y-94440847D01*
X72853270Y-95129751D01*
X72479326Y-96030307D01*
X72478475Y-97005415D01*
X45706100Y-97005415D01*
X45706100Y-95015749D01*
X51052212Y-95015749D01*
X51374671Y-95675651D01*
X52950519Y-96396670D01*
X54682334Y-96459755D01*
X56306465Y-95855300D01*
X56575329Y-95675651D01*
X56897788Y-95015749D01*
X53975000Y-92092961D01*
X51052212Y-95015749D01*
X45706100Y-95015749D01*
X45706100Y-92782334D01*
X49590245Y-92782334D01*
X50194700Y-94406465D01*
X50374349Y-94675329D01*
X51034251Y-94997788D01*
X53957039Y-92075000D01*
X53992961Y-92075000D01*
X56915749Y-94997788D01*
X57575651Y-94675329D01*
X58296670Y-93099481D01*
X58359755Y-91367666D01*
X58331005Y-91290415D01*
X68668475Y-91290415D01*
X69040847Y-92191623D01*
X69729751Y-92881730D01*
X70630307Y-93255674D01*
X71605415Y-93256525D01*
X72506623Y-92884153D01*
X73196730Y-92195249D01*
X73570674Y-91294693D01*
X73571525Y-90319585D01*
X73199153Y-89418377D01*
X72510249Y-88728270D01*
X71609693Y-88354326D01*
X70634585Y-88353475D01*
X69733377Y-88725847D01*
X69043270Y-89414751D01*
X68669326Y-90315307D01*
X68668475Y-91290415D01*
X58331005Y-91290415D01*
X57755300Y-89743535D01*
X57575651Y-89474671D01*
X56915749Y-89152212D01*
X53992961Y-92075000D01*
X53957039Y-92075000D01*
X51034251Y-89152212D01*
X50374349Y-89474671D01*
X49653330Y-91050519D01*
X49590245Y-92782334D01*
X45706100Y-92782334D01*
X45706100Y-89134251D01*
X51052212Y-89134251D01*
X53975000Y-92057039D01*
X56897788Y-89134251D01*
X56575329Y-88474349D01*
X54999481Y-87753330D01*
X53267666Y-87690245D01*
X51643535Y-88294700D01*
X51374671Y-88474349D01*
X51052212Y-89134251D01*
X45706100Y-89134251D01*
X45706100Y-86981100D01*
X182893900Y-86981100D01*
X182893900Y-98546652D01*
G36*
X125127103Y-112380858D02*
X125112961Y-112395000D01*
X125127103Y-112409142D01*
X125109142Y-112427103D01*
X125095000Y-112412961D01*
X125080858Y-112427103D01*
X125062897Y-112409142D01*
X125077039Y-112395000D01*
X125062897Y-112380858D01*
X125080858Y-112362897D01*
X125095000Y-112377039D01*
X125109142Y-112362897D01*
X125127103Y-112380858D01*
X125127103Y-112380858D01*
G37*
X125127103Y-112380858D02*
X125112961Y-112395000D01*
X125127103Y-112409142D01*
X125109142Y-112427103D01*
X125095000Y-112412961D01*
X125080858Y-112427103D01*
X125062897Y-112409142D01*
X125077039Y-112395000D01*
X125062897Y-112380858D01*
X125080858Y-112362897D01*
X125095000Y-112377039D01*
X125109142Y-112362897D01*
X125127103Y-112380858D01*
G36*
X147987103Y-112380858D02*
X147972961Y-112395000D01*
X147987103Y-112409142D01*
X147969142Y-112427103D01*
X147955000Y-112412961D01*
X147940858Y-112427103D01*
X147922897Y-112409142D01*
X147937039Y-112395000D01*
X147922897Y-112380858D01*
X147940858Y-112362897D01*
X147955000Y-112377039D01*
X147969142Y-112362897D01*
X147987103Y-112380858D01*
X147987103Y-112380858D01*
G37*
X147987103Y-112380858D02*
X147972961Y-112395000D01*
X147987103Y-112409142D01*
X147969142Y-112427103D01*
X147955000Y-112412961D01*
X147940858Y-112427103D01*
X147922897Y-112409142D01*
X147937039Y-112395000D01*
X147922897Y-112380858D01*
X147940858Y-112362897D01*
X147955000Y-112377039D01*
X147969142Y-112362897D01*
X147987103Y-112380858D01*
G36*
X135287103Y-90790858D02*
X135272961Y-90805000D01*
X135287103Y-90819142D01*
X135269142Y-90837103D01*
X135255000Y-90822961D01*
X135240858Y-90837103D01*
X135222897Y-90819142D01*
X135237039Y-90805000D01*
X135222897Y-90790858D01*
X135240858Y-90772897D01*
X135255000Y-90787039D01*
X135269142Y-90772897D01*
X135287103Y-90790858D01*
X135287103Y-90790858D01*
G37*
X135287103Y-90790858D02*
X135272961Y-90805000D01*
X135287103Y-90819142D01*
X135269142Y-90837103D01*
X135255000Y-90822961D01*
X135240858Y-90837103D01*
X135222897Y-90819142D01*
X135237039Y-90805000D01*
X135222897Y-90790858D01*
X135240858Y-90772897D01*
X135255000Y-90787039D01*
X135269142Y-90772897D01*
X135287103Y-90790858D01*
M02*
