M48
INCH,TZ
T1C0.032
T2C0.040
T3C0.059
T4C0.062
T5C0.125
%
G90
G05
T1
X57500Y-46000
X58500Y-46000
X59500Y-46000
X68000Y-42000
X68000Y-44000
X69000Y-35000
X69000Y-37000
X70000Y-39250
X70000Y-40250
X70000Y-42000
X70000Y-43000
X70000Y-44000
T2
X49071Y-41010
X49071Y-44990
X49670Y-42010
X49670Y-45990
X53500Y-41750
X53500Y-42750
X53500Y-43750
X53500Y-44750
X54500Y-42250
X54500Y-43250
X54500Y-44250
X54500Y-45250
X57500Y-41000
X57500Y-42500
X57500Y-44000
X61500Y-41000
X61500Y-42500
X61500Y-44000
X63500Y-41000
X63500Y-42000
X63500Y-43000
X63500Y-44000
X64250Y-45750
X66500Y-41000
X66500Y-42000
X66500Y-43000
X66500Y-44000
X68250Y-45750
T3
X52200Y-40439
X52200Y-46561
T4
X64500Y-31000
X64500Y-36000
X65680Y-29175
X65680Y-32825
X65680Y-34175
X65680Y-37825
T5
X51000Y-41250
X51000Y-45750
X75000Y-30000
X75000Y-45000
T0
M30
